<svg width="42" height="24" viewBox="0 0 42 24" fill="none" xmlns="http://www.w3.org/2000/svg">
<rect width="41.0167" height="24" fill="black"/>
<path d="M22.861 6.55483C23.3623 5.95654 23.71 5.13997 23.71 4.31531C23.71 4.20212 23.7019 4.08893 23.6776 4C22.8772 4.03234 21.907 4.5336 21.3249 5.21273C20.8722 5.73017 20.4517 6.55483 20.4517 7.37948C20.4517 7.50884 20.4679 7.63012 20.4841 7.67054C20.5326 7.67863 20.6134 7.6948 20.6943 7.6948C21.4219 7.6948 22.3274 7.2097 22.861 6.55483ZM23.4351 7.86458C22.2223 7.86458 21.2441 8.6003 20.6134 8.6003C19.9424 8.6003 19.0692 7.91309 18.0182 7.91309C16.0212 7.91309 14 9.56241 14 12.667C14 14.6074 14.7438 16.6529 15.6736 17.9707C16.4659 19.0864 17.1612 20 18.1556 20C19.1501 20 19.5867 19.3451 20.8075 19.3451C22.0606 19.3451 22.3355 19.9838 23.4351 19.9838C24.5184 19.9838 25.238 18.9894 25.9171 18.0111C26.6852 16.8873 27.0005 15.7959 27.0167 15.7393C26.952 15.7231 24.8742 14.8742 24.8742 12.5053C24.8742 10.4517 26.5073 9.53007 26.5963 9.4573C25.5291 7.91309 23.8878 7.86458 23.4351 7.86458Z" fill="white"/>
</svg>
