<svg width="59" height="66" viewBox="0 0 59 66" fill="none" xmlns="http://www.w3.org/2000/svg">
<rect x="12" y="0.5" width="35" height="39" rx="1.5" fill="white" stroke="black"/>
<rect x="16" y="4.5" width="27" height="20" rx="1.5" fill="white" stroke="black"/>
<rect x="14" y="39.5" width="31" height="6" fill="white" stroke="black"/>
<line x1="29.5" y1="31.5" x2="41.5" y2="31.5" stroke="black"/>
<path fill-rule="evenodd" clip-rule="evenodd" d="M18.5 7H19.5V8H18.5V7ZM18.5 10H19.5V11H18.5V10ZM19.5 13H18.5V14H19.5V13ZM18.5 16H19.5V17H18.5V16ZM19.5 19H18.5V20H19.5V19ZM21.5 7H22.5V8H21.5V7ZM22.5 10H21.5V11H22.5V10ZM21.5 13H22.5V14H21.5V13ZM22.5 16H21.5V17H22.5V16ZM21.5 19H22.5V20H21.5V19ZM25.5 7H24.5V8H25.5V7ZM24.5 10H25.5V11H24.5V10ZM25.5 19H24.5V20H25.5V19ZM27.5 7H28.5V8H27.5V7ZM28.5 10H27.5V11H28.5V10ZM30.5 7H31.5V8H30.5V7ZM34.5 7H33.5V8H34.5V7Z" fill="black"/>
<rect width="59" height="19" transform="translate(0 47)" fill="white"/>
<path d="M4.74512 59.6143H6.12598V59.6826C6.12598 60.2705 6.33333 60.6807 6.74805 60.9131C7.16276 61.141 7.71419 61.2549 8.40234 61.2549C9.00391 61.2549 9.50749 61.0794 9.91309 60.7285C10.3232 60.3776 10.5283 59.915 10.5283 59.3408C10.5283 58.876 10.3529 58.4954 10.002 58.1992C9.65104 57.9076 9.11784 57.6159 8.40234 57.3242L7.84863 57.0986C7.09668 56.7887 6.53385 56.4834 6.16016 56.1826C5.79102 55.8773 5.5153 55.54 5.33301 55.1709C5.15072 54.8018 5.05957 54.3893 5.05957 53.9336C5.05957 53.1315 5.34212 52.4548 5.90723 51.9033C6.47689 51.3519 7.36556 51.0762 8.57324 51.0762C9.68066 51.0762 10.46 51.2812 10.9111 51.6914C11.3623 52.1016 11.5879 52.5801 11.5879 53.127V53.1953H10.207V53.127C10.207 52.9538 10.1364 52.7829 9.99512 52.6143C9.8584 52.4456 9.65104 52.3249 9.37305 52.252C9.09505 52.1745 8.78971 52.1357 8.45703 52.1357C7.77799 52.1357 7.27441 52.3066 6.94629 52.6484C6.62272 52.9857 6.46094 53.3708 6.46094 53.8037C6.46094 54.0954 6.53841 54.3711 6.69336 54.6309C6.84831 54.8861 7.06022 55.098 7.3291 55.2666C7.60254 55.4352 8.06055 55.6608 8.70312 55.9434L9.35254 56.2236C10.3916 56.6748 11.0866 57.1488 11.4375 57.6455C11.7839 58.1423 11.957 58.6777 11.957 59.252C11.957 59.7852 11.8158 60.3024 11.5332 60.8037C11.2507 61.3005 10.8587 61.6787 10.3574 61.9385C9.85612 62.1937 9.18848 62.3213 8.35449 62.3213C7.56152 62.3213 6.89844 62.2256 6.36523 62.0342C5.83659 61.8473 5.43327 61.5374 5.15527 61.1045C4.88184 60.6715 4.74512 60.1976 4.74512 59.6826V59.6143ZM15.9834 61.6719L12.7021 54.3643H14.1104L16.667 60.0381L19.0596 54.3643H20.3379L17.1182 62.0068C16.6852 63.0368 16.3229 63.7181 16.0312 64.0508C15.7396 64.388 15.4297 64.625 15.1016 64.7617C14.778 64.8984 14.3451 64.9668 13.8027 64.9668H12.8457V63.9072H13.5635C13.9144 63.9072 14.222 63.8594 14.4863 63.7637C14.7507 63.6725 14.9694 63.5244 15.1426 63.3193C15.3203 63.1143 15.5573 62.6631 15.8535 61.9658L15.9834 61.6719ZM21.0352 59.9834H22.3066V60.0107C22.3066 60.3389 22.432 60.6123 22.6826 60.8311C22.9333 61.0452 23.3571 61.1523 23.9541 61.1523C24.4782 61.1523 24.902 61.0247 25.2256 60.7695C25.5537 60.5143 25.7178 60.2135 25.7178 59.8672C25.7178 59.3978 25.3988 59.0651 24.7607 58.8691L24.1113 58.6709L23.6807 58.5342L22.7988 58.2607C21.7917 57.8916 21.2881 57.2786 21.2881 56.4219C21.2881 55.8203 21.5319 55.2917 22.0195 54.8359C22.5072 54.3802 23.2318 54.1523 24.1934 54.1523C25.1413 54.1523 25.8158 54.3483 26.2168 54.7402C26.6178 55.1276 26.8184 55.5583 26.8184 56.0322V56.0596H25.54V56.0322C25.54 55.777 25.4102 55.5765 25.1504 55.4307C24.8952 55.2848 24.5534 55.2119 24.125 55.2119C23.6146 55.2119 23.2227 55.319 22.9492 55.5332C22.6803 55.7428 22.5459 56.0026 22.5459 56.3125C22.5459 56.5495 22.6325 56.7432 22.8057 56.8936C22.9834 57.0394 23.2796 57.1715 23.6943 57.29L24.3096 57.4609L24.7539 57.5908C25.3737 57.7686 25.7588 57.8939 25.9092 57.9668C26.0641 58.0397 26.2191 58.1331 26.374 58.2471C26.5882 58.4111 26.7454 58.6094 26.8457 58.8418C26.9505 59.0742 27.0029 59.3454 27.0029 59.6553C27.0029 60.3753 26.7432 60.9814 26.2236 61.4736C25.7087 61.9658 24.9544 62.2119 23.9609 62.2119C23.332 62.2119 22.8102 62.1185 22.3955 61.9316C21.9808 61.7448 21.6504 61.4873 21.4043 61.1592C21.1582 60.8265 21.0352 60.4437 21.0352 60.0107V59.9834ZM33.3125 60.9199V61.9863C32.6927 62.1367 32.2188 62.2119 31.8906 62.2119C31.4167 62.2119 30.9883 62.1162 30.6055 61.9248C30.2272 61.7334 29.9378 61.4554 29.7373 61.0908C29.5413 60.7262 29.4434 60.1452 29.4434 59.3477V55.4238H28.1172V54.3643H29.4434V52.5596H30.7148V54.3643H32.9434V55.4238H30.7148V58.9854C30.7148 59.6598 30.7673 60.1292 30.8721 60.3936C30.9769 60.6533 31.141 60.8447 31.3643 60.9678C31.5921 61.0908 31.8633 61.1523 32.1777 61.1523C32.4284 61.1523 32.8066 61.0749 33.3125 60.9199ZM39.8408 60.0381H41.1123V60.1064C41.1123 60.4437 40.9779 60.7878 40.709 61.1387C40.4401 61.4896 40.0846 61.7562 39.6426 61.9385C39.2005 62.1208 38.6924 62.2119 38.1182 62.2119C36.9561 62.2119 36.0583 61.8359 35.4248 61.084C34.7959 60.332 34.4814 59.3818 34.4814 58.2334C34.4814 57.0576 34.8141 56.0846 35.4795 55.3145C36.1494 54.5397 37.0107 54.1523 38.0635 54.1523C38.6423 54.1523 39.1663 54.2777 39.6357 54.5283C40.1051 54.779 40.4766 55.1709 40.75 55.7041C41.0234 56.2327 41.1602 56.971 41.1602 57.9189V58.3428H35.7393C35.7393 59.1585 35.958 59.8307 36.3955 60.3594C36.8376 60.888 37.4482 61.1523 38.2275 61.1523C38.7881 61.1523 39.196 61.0452 39.4512 60.8311C39.7109 60.6123 39.8408 60.3708 39.8408 60.1064V60.0381ZM35.8213 57.3857H39.9434V57.2354C39.9434 56.8799 39.8568 56.5358 39.6836 56.2031C39.515 55.8659 39.2803 55.6175 38.9795 55.458C38.6787 55.2939 38.3278 55.2119 37.9268 55.2119C37.4528 55.2119 37.0153 55.4033 36.6143 55.7861C36.2132 56.1644 35.9489 56.6976 35.8213 57.3857ZM44.1885 62H42.917V54.3643H44.1885V55.7451C44.4482 55.2848 44.6943 54.9544 44.9268 54.7539C45.1637 54.5534 45.4212 54.403 45.6992 54.3027C45.9772 54.2025 46.2734 54.1523 46.5879 54.1523C46.9023 54.1523 47.2031 54.2025 47.4902 54.3027C47.7773 54.3984 48.0257 54.5443 48.2354 54.7402C48.445 54.9362 48.6523 55.2712 48.8574 55.7451C49.1172 55.3031 49.3724 54.9795 49.623 54.7744C49.8783 54.5648 50.138 54.4098 50.4023 54.3096C50.6712 54.2048 50.9561 54.1523 51.2568 54.1523C51.6898 54.1523 52.0817 54.2549 52.4326 54.46C52.7835 54.6605 53.0524 54.9476 53.2393 55.3213C53.4307 55.695 53.5264 56.3307 53.5264 57.2285V62H52.248V57.7549C52.248 56.8571 52.1934 56.2897 52.084 56.0527C51.9792 55.8158 51.8311 55.6357 51.6396 55.5127C51.4528 55.3851 51.2249 55.3213 50.9561 55.3213C50.5778 55.3213 50.2292 55.4398 49.9102 55.6768C49.5911 55.9092 49.3359 56.2236 49.1445 56.6201C48.9531 57.0166 48.8574 57.5726 48.8574 58.2881V62H47.5859V57.7549C47.5859 56.8571 47.5358 56.2897 47.4355 56.0527C47.3398 55.8158 47.1849 55.6335 46.9707 55.5059C46.7565 55.3783 46.5264 55.3145 46.2803 55.3145C45.9339 55.3145 45.5921 55.4375 45.2549 55.6836C44.9222 55.9251 44.6602 56.2487 44.4688 56.6543C44.2819 57.0553 44.1885 57.5999 44.1885 58.2881V62Z" fill="black"/>
</svg>
