<svg width="145" height="66" viewBox="0 0 145 66" fill="none" xmlns="http://www.w3.org/2000/svg">
<rect width="42" height="46" transform="translate(51.5)" fill="black"/>
<path fill-rule="evenodd" clip-rule="evenodd" d="M53.5 0V0.48913L54.5 0.48913V0H53.5ZM53.5 1.46739V2.44565H54.5V1.46739H53.5ZM53.5 3.42391L53.5 4.40217H54.5V3.42391H53.5ZM53.5 5.38043V6.3587H54.5V5.38043H53.5ZM53.5 7.33696V8.31522H54.5L54.5 7.33696H53.5ZM53.5 9.29348L53.5 10.2717H54.5V9.29348H53.5ZM53.5 11.25V12.2283H54.5V11.25H53.5ZM53.5 13.2065V14.1848H54.5L54.5 13.2065H53.5ZM53.5 15.163V16.1413H54.5V15.163H53.5ZM53.5 17.1196V18.0978H54.5V17.1196H53.5ZM53.5 19.0761V20.0543H54.5L54.5 19.0761H53.5ZM53.5 21.0326V22.0109H54.5V21.0326H53.5ZM53.5 22.9891V23.9674H54.5V22.9891H53.5ZM53.5 24.9456L53.5 25.9239H54.5V24.9456H53.5ZM53.5 26.9022V27.8804H54.5V26.9022H53.5ZM53.5 28.8587V29.8369H54.5V28.8587H53.5ZM53.5 30.8152L53.5 31.7935H54.5V30.8152H53.5ZM53.5 32.7717V33.75H54.5V32.7717H53.5ZM53.5 34.7282V35.7065H54.5L54.5 34.7282H53.5ZM53.5 36.6848L53.5 37.663H54.5V36.6848H53.5ZM53.5 38.6413V39.6195H54.5V38.6413H53.5ZM53.5 40.5978V41.5761H54.5L54.5 40.5978H53.5ZM53.5 42.5543V43.5326H54.5V42.5543H53.5ZM53.5 44.5108V45H54.5V44.5108H53.5ZM51.5 1V1.48913H52.5V1H51.5ZM51.5 2.46739V3.44565H52.5V2.46739H51.5ZM51.5 4.42391V5.40217H52.5V4.42391H51.5ZM51.5 6.38043V7.3587H52.5L52.5 6.38043H51.5ZM51.5 8.33696V9.31522H52.5V8.33696H51.5ZM51.5 10.2935V11.2717H52.5V10.2935H51.5ZM51.5 12.25V13.2283H52.5L52.5 12.25H51.5ZM51.5 14.2065V15.1848H52.5V14.2065H51.5ZM51.5 16.163V17.1413H52.5V16.163L51.5 16.163ZM51.5 18.1196V19.0978H52.5V18.1196H51.5ZM51.5 20.0761V21.0543H52.5L52.5 20.0761H51.5ZM51.5 22.0326V23.0109H52.5V22.0326H51.5ZM51.5 23.9891V24.9674H52.5V23.9891H51.5ZM51.5 25.9456V26.9239H52.5L52.5 25.9456H51.5ZM51.5 27.9022V28.8804H52.5V27.9022H51.5ZM51.5 29.8587V30.8369H52.5V29.8587H51.5ZM51.5 31.8152V32.7935H52.5V31.8152H51.5ZM51.5 33.7717V34.75H52.5L52.5 33.7717H51.5ZM51.5 35.7282V36.7065H52.5V35.7282H51.5ZM51.5 37.6848V38.663H52.5V37.6848H51.5ZM51.5 39.6413V40.6195H52.5L52.5 39.6413H51.5ZM51.5 41.5978V42.5761H52.5V41.5978H51.5ZM51.5 43.5543V44.5326H52.5V43.5543H51.5ZM51.5 45.5108L51.5 46H52.5V45.5108H51.5ZM55.5 1V1.48913H56.5V1H55.5ZM55.5 2.46739V3.44565H56.5V2.46739H55.5ZM55.5 4.42391V5.40217H56.5V4.42391H55.5ZM55.5 6.38043V7.3587H56.5L56.5 6.38043H55.5ZM55.5 8.33696L55.5 9.31522H56.5V8.33696H55.5ZM55.5 10.2935V11.2717H56.5V10.2935H55.5ZM55.5 12.25V13.2283H56.5V12.25H55.5ZM55.5 14.2065V15.1848H56.5V14.2065H55.5ZM55.5 16.163V17.1413H56.5V16.163L55.5 16.163ZM55.5 18.1196V19.0978H56.5V18.1196H55.5ZM55.5 20.0761L55.5 21.0543H56.5V20.0761H55.5ZM55.5 22.0326V23.0109H56.5V22.0326H55.5ZM55.5 23.9891V24.9674H56.5V23.9891H55.5ZM55.5 25.9456V26.9239H56.5V25.9456H55.5ZM55.5 27.9022V28.8804H56.5L56.5 27.9022H55.5ZM55.5 29.8587V30.8369H56.5V29.8587H55.5ZM55.5 31.8152V32.7935H56.5V31.8152H55.5ZM55.5 33.7717V34.75H56.5V33.7717H55.5ZM55.5 35.7282V36.7065H56.5V35.7282H55.5ZM55.5 37.6848V38.663H56.5V37.6848H55.5ZM55.5 39.6413V40.6195H56.5V39.6413H55.5ZM55.5 41.5978L55.5 42.5761H56.5V41.5978H55.5ZM55.5 43.5543V44.5326H56.5V43.5543H55.5ZM55.5 45.5108V46H56.5V45.5108H55.5ZM59.5 1.48913V1H60.5V1.48913H59.5ZM59.5 3.44565V2.46739H60.5V3.44565H59.5ZM59.5 5.40217V4.42391H60.5V5.40217H59.5ZM59.5 7.3587V6.38043H60.5V7.3587H59.5ZM59.5 9.31522V8.33696H60.5V9.31522H59.5ZM59.5 11.2717V10.2935H60.5V11.2717H59.5ZM59.5 13.2283V12.25H60.5V13.2283H59.5ZM59.5 15.1848V14.2065H60.5V15.1848H59.5ZM59.5 17.1413V16.163L60.5 16.163V17.1413H59.5ZM59.5 19.0978V18.1196H60.5V19.0978H59.5ZM59.5 21.0543V20.0761H60.5V21.0543H59.5ZM59.5 23.0109V22.0326H60.5V23.0109H59.5ZM59.5 24.9674V23.9891H60.5V24.9674H59.5ZM59.5 26.9239V25.9456H60.5V26.9239H59.5ZM59.5 28.8804V27.9022H60.5V28.8804H59.5ZM59.5 30.8369V29.8587H60.5V30.8369H59.5ZM59.5 32.7935V31.8152H60.5V32.7935H59.5ZM59.5 34.75V33.7717H60.5V34.75H59.5ZM59.5 36.7065V35.7282H60.5V36.7065H59.5ZM59.5 38.663V37.6848H60.5V38.663H59.5ZM59.5 40.6195V39.6413H60.5V40.6195H59.5ZM59.5 42.5761V41.5978H60.5V42.5761H59.5ZM59.5 44.5326V43.5543H60.5V44.5326H59.5ZM59.5 46V45.5108H60.5V46H59.5ZM63.5 1V1.48913H64.5V1H63.5ZM63.5 2.46739V3.44565H64.5V2.46739H63.5ZM63.5 4.42391V5.40217H64.5V4.42391H63.5ZM63.5 6.38043V7.3587H64.5V6.38043H63.5ZM63.5 8.33696V9.31522H64.5V8.33696H63.5ZM63.5 10.2935V11.2717H64.5V10.2935H63.5ZM63.5 12.25V13.2283H64.5V12.25H63.5ZM63.5 14.2065V15.1848H64.5V14.2065H63.5ZM63.5 16.163V17.1413H64.5V16.163L63.5 16.163ZM63.5 18.1196V19.0978H64.5V18.1196H63.5ZM63.5 20.0761V21.0543H64.5V20.0761H63.5ZM63.5 22.0326V23.0109H64.5V22.0326H63.5ZM63.5 23.9891V24.9674H64.5V23.9891H63.5ZM63.5 25.9456V26.9239H64.5V25.9456H63.5ZM63.5 27.9022V28.8804H64.5V27.9022H63.5ZM63.5 29.8587V30.8369H64.5V29.8587H63.5ZM63.5 31.8152V32.7935H64.5V31.8152H63.5ZM63.5 33.7717V34.75H64.5V33.7717H63.5ZM63.5 35.7282V36.7065H64.5V35.7282H63.5ZM63.5 37.6848V38.663H64.5V37.6848H63.5ZM63.5 39.6413V40.6195H64.5V39.6413H63.5ZM63.5 41.5978V42.5761H64.5V41.5978H63.5ZM63.5 43.5543V44.5326H64.5V43.5543H63.5ZM63.5 45.5108V46H64.5V45.5108H63.5ZM67.5 1.48913V1H68.5V1.48913H67.5ZM67.5 3.44565V2.46739H68.5V3.44565H67.5ZM67.5 5.40217V4.42391H68.5V5.40217H67.5ZM67.5 7.3587V6.38043H68.5V7.3587H67.5ZM67.5 9.31522V8.33696H68.5V9.31522H67.5ZM67.5 11.2717V10.2935H68.5V11.2717H67.5ZM67.5 13.2283V12.25H68.5V13.2283H67.5ZM67.5 15.1848V14.2065H68.5V15.1848H67.5ZM67.5 17.1413V16.163L68.5 16.163V17.1413H67.5ZM67.5 19.0978V18.1196H68.5V19.0978H67.5ZM67.5 21.0543V20.0761H68.5V21.0543H67.5ZM67.5 23.0109V22.0326H68.5L68.5 23.0109H67.5ZM67.5 24.9674V23.9891H68.5V24.9674H67.5ZM67.5 26.9239V25.9456H68.5V26.9239H67.5ZM67.5 28.8804V27.9022H68.5V28.8804H67.5ZM67.5 30.8369V29.8587H68.5V30.8369H67.5ZM67.5 32.7935V31.8152H68.5V32.7935H67.5ZM67.5 34.75V33.7717H68.5V34.75H67.5ZM67.5 36.7065V35.7282H68.5V36.7065H67.5ZM67.5 38.663V37.6848H68.5V38.663H67.5ZM67.5 40.6195V39.6413H68.5V40.6195H67.5ZM67.5 42.5761V41.5978H68.5V42.5761H67.5ZM67.5 44.5326V43.5543H68.5V44.5326H67.5ZM67.5 46V45.5108H68.5V46H67.5ZM71.5 1V1.48913H72.5V1H71.5ZM71.5 2.46739V3.44565H72.5V2.46739H71.5ZM71.5 4.42391V5.40217H72.5V4.42391H71.5ZM71.5 6.38043V7.3587H72.5V6.38043H71.5ZM71.5 8.33696V9.31522H72.5V8.33696H71.5ZM71.5 10.2935V11.2717H72.5V10.2935H71.5ZM71.5 12.25V13.2283H72.5V12.25H71.5ZM71.5 14.2065V15.1848H72.5V14.2065H71.5ZM71.5 16.163V17.1413H72.5V16.163L71.5 16.163ZM71.5 18.1196V19.0978H72.5V18.1196H71.5ZM71.5 20.0761V21.0543H72.5V20.0761H71.5ZM71.5 22.0326L71.5 23.0109H72.5L72.5 22.0326H71.5ZM71.5 23.9891V24.9674H72.5V23.9891H71.5ZM71.5 25.9456V26.9239H72.5V25.9456H71.5ZM71.5 27.9022V28.8804H72.5V27.9022H71.5ZM71.5 29.8587V30.8369H72.5V29.8587H71.5ZM71.5 31.8152V32.7935H72.5V31.8152H71.5ZM71.5 33.7717V34.75H72.5V33.7717H71.5ZM71.5 35.7282V36.7065H72.5V35.7282H71.5ZM71.5 37.6848V38.663H72.5V37.6848H71.5ZM71.5 39.6413V40.6195H72.5V39.6413H71.5ZM71.5 41.5978V42.5761H72.5V41.5978H71.5ZM71.5 43.5543V44.5326H72.5V43.5543H71.5ZM71.5 45.5108V46H72.5V45.5108H71.5ZM75.5 1.48913V1H76.5V1.48913H75.5ZM75.5 3.44565V2.46739H76.5V3.44565H75.5ZM75.5 5.40217V4.42391H76.5V5.40217H75.5ZM75.5 7.3587V6.38043H76.5V7.3587H75.5ZM75.5 9.31522V8.33696H76.5V9.31522H75.5ZM75.5 11.2717V10.2935H76.5V11.2717H75.5ZM75.5 13.2283V12.25H76.5V13.2283H75.5ZM75.5 15.1848V14.2065H76.5V15.1848H75.5ZM75.5 17.1413V16.163L76.5 16.163V17.1413H75.5ZM75.5 19.0978V18.1196H76.5V19.0978H75.5ZM75.5 21.0543V20.0761H76.5V21.0543H75.5ZM75.5 23.0109L75.5 22.0326H76.5L76.5 23.0109H75.5ZM75.5 24.9674V23.9891H76.5V24.9674H75.5ZM75.5 26.9239V25.9456H76.5V26.9239H75.5ZM75.5 28.8804V27.9022H76.5V28.8804H75.5ZM75.5 30.8369V29.8587H76.5V30.8369H75.5ZM75.5 32.7935V31.8152H76.5V32.7935H75.5ZM75.5 34.75V33.7717H76.5V34.75H75.5ZM75.5 36.7065V35.7282H76.5V36.7065H75.5ZM75.5 38.663V37.6848H76.5V38.663H75.5ZM75.5 40.6195V39.6413H76.5V40.6195H75.5ZM75.5 42.5761V41.5978H76.5V42.5761H75.5ZM75.5 44.5326V43.5543H76.5V44.5326H75.5ZM75.5 46V45.5108H76.5V46H75.5ZM79.5 1V1.48913H80.5V1H79.5ZM79.5 2.46739V3.44565H80.5V2.46739H79.5ZM79.5 4.42391V5.40217H80.5V4.42391H79.5ZM79.5 6.38043V7.3587H80.5V6.38043H79.5ZM79.5 8.33696V9.31522H80.5V8.33696H79.5ZM79.5 10.2935V11.2717H80.5V10.2935H79.5ZM79.5 12.25V13.2283H80.5V12.25H79.5ZM79.5 14.2065V15.1848H80.5V14.2065H79.5ZM79.5 16.163V17.1413H80.5V16.163L79.5 16.163ZM79.5 18.1196V19.0978H80.5V18.1196H79.5ZM79.5 20.0761V21.0543H80.5V20.0761H79.5ZM79.5 22.0326L79.5 23.0109H80.5L80.5 22.0326H79.5ZM79.5 23.9891V24.9674H80.5V23.9891H79.5ZM79.5 25.9456V26.9239H80.5V25.9456H79.5ZM79.5 27.9022V28.8804H80.5V27.9022H79.5ZM79.5 29.8587V30.8369H80.5V29.8587H79.5ZM79.5 31.8152V32.7935H80.5V31.8152H79.5ZM79.5 33.7717V34.75H80.5V33.7717H79.5ZM79.5 35.7282V36.7065H80.5V35.7282H79.5ZM79.5 37.6848V38.663H80.5V37.6848H79.5ZM79.5 39.6413V40.6195H80.5V39.6413H79.5ZM79.5 41.5978V42.5761H80.5V41.5978H79.5ZM79.5 43.5543V44.5326H80.5V43.5543H79.5ZM79.5 45.5108V46H80.5V45.5108H79.5ZM83.5 1.48913V1H84.5V1.48913H83.5ZM83.5 3.44565V2.46739H84.5V3.44565H83.5ZM83.5 5.40217V4.42391H84.5V5.40217H83.5ZM83.5 7.3587V6.38043H84.5V7.3587H83.5ZM83.5 9.31522V8.33696H84.5V9.31522H83.5ZM83.5 11.2717V10.2935H84.5V11.2717H83.5ZM83.5 13.2283V12.25H84.5V13.2283H83.5ZM83.5 15.1848V14.2065H84.5V15.1848H83.5ZM83.5 17.1413V16.163L84.5 16.163V17.1413H83.5ZM83.5 19.0978V18.1196H84.5V19.0978H83.5ZM83.5 21.0543V20.0761H84.5V21.0543H83.5ZM83.5 23.0109L83.5 22.0326H84.5V23.0109H83.5ZM83.5 24.9674V23.9891H84.5V24.9674H83.5ZM83.5 26.9239V25.9456H84.5V26.9239H83.5ZM83.5 28.8804V27.9022H84.5V28.8804H83.5ZM83.5 30.8369V29.8587H84.5V30.8369H83.5ZM83.5 32.7935V31.8152H84.5V32.7935H83.5ZM83.5 34.75V33.7717H84.5V34.75H83.5ZM83.5 36.7065V35.7282H84.5V36.7065H83.5ZM83.5 38.663V37.6848H84.5V38.663H83.5ZM83.5 40.6195V39.6413H84.5V40.6195H83.5ZM83.5 42.5761V41.5978H84.5V42.5761H83.5ZM83.5 44.5326V43.5543H84.5V44.5326H83.5ZM83.5 46V45.5108H84.5V46H83.5ZM87.5 1V1.48913H88.5V1H87.5ZM87.5 2.46739V3.44565H88.5V2.46739H87.5ZM87.5 4.42391V5.40217H88.5V4.42391H87.5ZM87.5 6.38043V7.3587H88.5V6.38043H87.5ZM87.5 8.33696V9.31522H88.5V8.33696H87.5ZM87.5 10.2935V11.2717H88.5V10.2935H87.5ZM87.5 12.25V13.2283H88.5V12.25H87.5ZM87.5 14.2065V15.1848H88.5V14.2065H87.5ZM87.5 16.163V17.1413H88.5V16.163L87.5 16.163ZM87.5 18.1196V19.0978H88.5V18.1196H87.5ZM87.5 20.0761V21.0543H88.5V20.0761H87.5ZM87.5 22.0326V23.0109H88.5V22.0326H87.5ZM87.5 23.9891V24.9674H88.5V23.9891H87.5ZM87.5 25.9456V26.9239H88.5V25.9456H87.5ZM87.5 27.9022V28.8804H88.5V27.9022H87.5ZM87.5 29.8587V30.8369H88.5V29.8587H87.5ZM87.5 31.8152V32.7935H88.5V31.8152H87.5ZM87.5 33.7717V34.75H88.5V33.7717H87.5ZM87.5 35.7282V36.7065H88.5V35.7282H87.5ZM87.5 37.6848V38.663H88.5V37.6848H87.5ZM87.5 39.6413V40.6195H88.5V39.6413H87.5ZM87.5 41.5978V42.5761H88.5V41.5978H87.5ZM87.5 43.5543V44.5326H88.5V43.5543H87.5ZM87.5 45.5108V46H88.5V45.5108H87.5ZM91.5 1.48913V1H92.5V1.48913H91.5ZM91.5 3.44565V2.46739H92.5V3.44565H91.5ZM91.5 5.40217V4.42391H92.5V5.40217H91.5ZM91.5 7.3587V6.38043H92.5V7.3587H91.5ZM91.5 9.31522V8.33696H92.5V9.31522H91.5ZM91.5 11.2717V10.2935H92.5V11.2717H91.5ZM91.5 13.2283V12.25H92.5V13.2283H91.5ZM91.5 15.1848V14.2065H92.5V15.1848H91.5ZM91.5 17.1413V16.163L92.5 16.163V17.1413H91.5ZM91.5 19.0978V18.1196H92.5V19.0978H91.5ZM91.5 21.0543V20.0761H92.5V21.0543H91.5ZM91.5 23.0109V22.0326H92.5V23.0109H91.5ZM91.5 24.9674V23.9891H92.5V24.9674H91.5ZM91.5 26.9239V25.9456H92.5V26.9239H91.5ZM91.5 28.8804V27.9022H92.5V28.8804H91.5ZM91.5 30.8369V29.8587H92.5V30.8369H91.5ZM91.5 32.7935V31.8152H92.5V32.7935H91.5ZM91.5 34.75V33.7717H92.5V34.75H91.5ZM91.5 36.7065V35.7282H92.5V36.7065H91.5ZM91.5 38.663V37.6848H92.5V38.663H91.5ZM91.5 40.6195V39.6413H92.5V40.6195H91.5ZM91.5 42.5761V41.5978H92.5V42.5761H91.5ZM91.5 44.5326V43.5543H92.5V44.5326H91.5ZM91.5 46V45.5108H92.5V46H91.5ZM57.5 0.48913V0H58.5V0.48913L57.5 0.48913ZM57.5 2.44565V1.46739H58.5V2.44565H57.5ZM57.5 4.40217V3.42391H58.5V4.40217H57.5ZM57.5 6.3587L57.5 5.38043H58.5L58.5 6.3587H57.5ZM57.5 8.31522V7.33696H58.5V8.31522H57.5ZM57.5 10.2717V9.29348H58.5V10.2717H57.5ZM57.5 12.2283V11.25H58.5V12.2283H57.5ZM57.5 14.1848V13.2065H58.5V14.1848H57.5ZM57.5 16.1413V15.163H58.5V16.1413H57.5ZM57.5 18.0978V17.1196H58.5V18.0978H57.5ZM57.5 20.0543V19.0761H58.5V20.0543H57.5ZM57.5 22.0109V21.0326H58.5V22.0109H57.5ZM57.5 23.9674V22.9891H58.5V23.9674H57.5ZM57.5 25.9239V24.9456H58.5V25.9239H57.5ZM57.5 27.8804L57.5 26.9022H58.5L58.5 27.8804H57.5ZM57.5 29.8369V28.8587H58.5V29.8369H57.5ZM57.5 31.7935V30.8152H58.5V31.7935H57.5ZM57.5 33.75V32.7717H58.5V33.75H57.5ZM57.5 35.7065V34.7282H58.5V35.7065H57.5ZM57.5 37.663V36.6848H58.5V37.663H57.5ZM57.5 39.6195V38.6413H58.5V39.6195H57.5ZM57.5 41.5761V40.5978H58.5V41.5761H57.5ZM57.5 43.5326V42.5543H58.5V43.5326H57.5ZM57.5 45V44.5108H58.5V45H57.5ZM61.5 0V0.48913L62.5 0.48913V0H61.5ZM61.5 1.46739V2.44565H62.5V1.46739H61.5ZM61.5 3.42391V4.40217H62.5V3.42391H61.5ZM61.5 5.38043V6.3587H62.5V5.38043H61.5ZM61.5 7.33696V8.31522H62.5V7.33696H61.5ZM61.5 9.29348V10.2717H62.5V9.29348H61.5ZM61.5 11.25V12.2283H62.5V11.25H61.5ZM61.5 13.2065V14.1848H62.5V13.2065H61.5ZM61.5 15.163V16.1413H62.5V15.163H61.5ZM61.5 17.1196V18.0978H62.5V17.1196H61.5ZM61.5 19.0761V20.0543H62.5V19.0761H61.5ZM61.5 21.0326V22.0109H62.5V21.0326H61.5ZM61.5 22.9891V23.9674H62.5V22.9891H61.5ZM61.5 24.9456V25.9239H62.5V24.9456H61.5ZM61.5 26.9022V27.8804H62.5V26.9022H61.5ZM61.5 28.8587V29.8369H62.5V28.8587H61.5ZM61.5 30.8152V31.7935H62.5V30.8152H61.5ZM61.5 32.7717V33.75H62.5V32.7717H61.5ZM61.5 34.7282V35.7065H62.5V34.7282H61.5ZM61.5 36.6848V37.663H62.5V36.6848H61.5ZM61.5 38.6413V39.6195H62.5V38.6413H61.5ZM61.5 40.5978V41.5761H62.5V40.5978H61.5ZM61.5 42.5543V43.5326H62.5V42.5543H61.5ZM61.5 44.5108V45H62.5V44.5108H61.5ZM65.5 0.48913V0H66.5V0.48913L65.5 0.48913ZM65.5 2.44565V1.46739H66.5V2.44565H65.5ZM65.5 4.40217V3.42391H66.5V4.40217H65.5ZM65.5 6.3587V5.38043H66.5V6.3587H65.5ZM65.5 8.31522V7.33696H66.5V8.31522H65.5ZM65.5 10.2717V9.29348H66.5V10.2717H65.5ZM65.5 12.2283V11.25H66.5V12.2283H65.5ZM65.5 14.1848V13.2065H66.5V14.1848H65.5ZM65.5 16.1413V15.163H66.5V16.1413H65.5ZM65.5 18.0978V17.1196H66.5V18.0978H65.5ZM65.5 20.0543V19.0761H66.5V20.0543H65.5ZM65.5 22.0109V21.0326H66.5V22.0109H65.5ZM65.5 23.9674V22.9891H66.5V23.9674H65.5ZM65.5 25.9239V24.9456H66.5V25.9239H65.5ZM65.5 27.8804V26.9022H66.5V27.8804H65.5ZM65.5 29.8369V28.8587H66.5V29.8369H65.5ZM65.5 31.7935V30.8152H66.5V31.7935H65.5ZM65.5 33.75V32.7717H66.5V33.75H65.5ZM65.5 35.7065V34.7282H66.5V35.7065H65.5ZM65.5 37.663V36.6848H66.5V37.663H65.5ZM65.5 39.6195V38.6413H66.5V39.6195H65.5ZM65.5 41.5761V40.5978H66.5V41.5761H65.5ZM65.5 43.5326V42.5543H66.5V43.5326H65.5ZM65.5 45V44.5108H66.5V45H65.5ZM69.5 0V0.48913L70.5 0.48913V0H69.5ZM69.5 1.46739V2.44565H70.5V1.46739H69.5ZM69.5 3.42391V4.40217H70.5V3.42391H69.5ZM69.5 5.38043V6.3587H70.5V5.38043H69.5ZM69.5 7.33696V8.31522H70.5V7.33696H69.5ZM69.5 9.29348V10.2717H70.5V9.29348H69.5ZM69.5 11.25V12.2283H70.5V11.25H69.5ZM69.5 13.2065V14.1848H70.5V13.2065H69.5ZM69.5 15.163V16.1413H70.5V15.163H69.5ZM69.5 17.1196V18.0978H70.5V17.1196H69.5ZM69.5 19.0761V20.0543H70.5V19.0761H69.5ZM69.5 21.0326L69.5 22.0109H70.5L70.5 21.0326H69.5ZM69.5 22.9891V23.9674H70.5V22.9891H69.5ZM69.5 24.9456V25.9239H70.5V24.9456H69.5ZM69.5 26.9022V27.8804H70.5V26.9022H69.5ZM69.5 28.8587V29.8369H70.5V28.8587H69.5ZM69.5 30.8152V31.7935H70.5V30.8152H69.5ZM69.5 32.7717V33.75H70.5V32.7717H69.5ZM69.5 34.7282V35.7065H70.5V34.7282H69.5ZM69.5 36.6848V37.663H70.5V36.6848H69.5ZM69.5 38.6413V39.6195H70.5V38.6413H69.5ZM69.5 40.5978V41.5761H70.5V40.5978H69.5ZM69.5 42.5543V43.5326H70.5V42.5543H69.5ZM69.5 44.5108V45H70.5V44.5108H69.5ZM73.5 0.48913V0H74.5V0.48913L73.5 0.48913ZM73.5 2.44565V1.46739H74.5V2.44565H73.5ZM73.5 4.40217V3.42391H74.5V4.40217H73.5ZM73.5 6.3587V5.38043H74.5V6.3587H73.5ZM73.5 8.31522V7.33696H74.5V8.31522H73.5ZM73.5 10.2717V9.29348H74.5V10.2717H73.5ZM73.5 12.2283V11.25H74.5V12.2283H73.5ZM73.5 14.1848V13.2065H74.5V14.1848H73.5ZM73.5 16.1413V15.163H74.5V16.1413H73.5ZM73.5 18.0978V17.1196H74.5V18.0978H73.5ZM73.5 20.0543V19.0761H74.5V20.0543H73.5ZM73.5 22.0109L73.5 21.0326H74.5L74.5 22.0109H73.5ZM73.5 23.9674V22.9891H74.5V23.9674H73.5ZM73.5 25.9239V24.9456H74.5V25.9239H73.5ZM73.5 27.8804V26.9022H74.5V27.8804H73.5ZM73.5 29.8369V28.8587H74.5V29.8369H73.5ZM73.5 31.7935V30.8152H74.5V31.7935H73.5ZM73.5 33.75V32.7717H74.5V33.75H73.5ZM73.5 35.7065V34.7282H74.5V35.7065H73.5ZM73.5 37.663V36.6848H74.5V37.663H73.5ZM73.5 39.6195V38.6413H74.5V39.6195H73.5ZM73.5 41.5761V40.5978H74.5V41.5761H73.5ZM73.5 43.5326V42.5543H74.5V43.5326H73.5ZM73.5 45V44.5108H74.5V45H73.5ZM77.5 0V0.48913L78.5 0.48913V0H77.5ZM77.5 1.46739V2.44565H78.5V1.46739H77.5ZM77.5 3.42391V4.40217H78.5V3.42391H77.5ZM77.5 5.38043V6.3587H78.5V5.38043H77.5ZM77.5 7.33696V8.31522H78.5V7.33696H77.5ZM77.5 9.29348V10.2717H78.5V9.29348H77.5ZM77.5 11.25V12.2283H78.5V11.25H77.5ZM77.5 13.2065V14.1848H78.5V13.2065H77.5ZM77.5 15.163V16.1413H78.5V15.163H77.5ZM77.5 17.1196V18.0978H78.5V17.1196H77.5ZM77.5 19.0761V20.0543H78.5V19.0761H77.5ZM77.5 21.0326L77.5 22.0109H78.5L78.5 21.0326H77.5ZM77.5 22.9891V23.9674H78.5V22.9891H77.5ZM77.5 24.9456V25.9239H78.5V24.9456H77.5ZM77.5 26.9022V27.8804H78.5V26.9022H77.5ZM77.5 28.8587V29.8369H78.5V28.8587H77.5ZM77.5 30.8152V31.7935H78.5V30.8152H77.5ZM77.5 32.7717V33.75H78.5V32.7717H77.5ZM77.5 34.7282V35.7065H78.5V34.7282H77.5ZM77.5 36.6848V37.663H78.5V36.6848H77.5ZM77.5 38.6413V39.6195H78.5V38.6413H77.5ZM77.5 40.5978V41.5761H78.5V40.5978H77.5ZM77.5 42.5543V43.5326H78.5V42.5543H77.5ZM77.5 44.5108V45H78.5V44.5108H77.5ZM81.5 0.48913V0H82.5V0.48913L81.5 0.48913ZM81.5 2.44565V1.46739H82.5V2.44565H81.5ZM81.5 4.40217V3.42391H82.5V4.40217H81.5ZM81.5 6.3587V5.38043H82.5V6.3587H81.5ZM81.5 8.31522V7.33696H82.5V8.31522H81.5ZM81.5 10.2717V9.29348H82.5V10.2717H81.5ZM81.5 12.2283V11.25H82.5V12.2283H81.5ZM81.5 14.1848V13.2065H82.5V14.1848H81.5ZM81.5 16.1413V15.163H82.5V16.1413H81.5ZM81.5 18.0978V17.1196H82.5V18.0978H81.5ZM81.5 20.0543V19.0761H82.5V20.0543H81.5ZM81.5 22.0109L81.5 21.0326H82.5L82.5 22.0109H81.5ZM81.5 23.9674V22.9891H82.5V23.9674H81.5ZM81.5 25.9239V24.9456H82.5V25.9239H81.5ZM81.5 27.8804V26.9022H82.5V27.8804H81.5ZM81.5 29.8369V28.8587H82.5V29.8369H81.5ZM81.5 31.7935V30.8152H82.5V31.7935H81.5ZM81.5 33.75V32.7717H82.5V33.75H81.5ZM81.5 35.7065V34.7282H82.5V35.7065H81.5ZM81.5 37.663V36.6848H82.5V37.663H81.5ZM81.5 39.6195V38.6413H82.5V39.6195H81.5ZM81.5 41.5761V40.5978H82.5V41.5761H81.5ZM81.5 43.5326V42.5543H82.5V43.5326H81.5ZM81.5 45V44.5108H82.5V45H81.5ZM85.5 0V0.48913L86.5 0.48913V0H85.5ZM85.5 1.46739V2.44565H86.5V1.46739H85.5ZM85.5 3.42391V4.40217H86.5V3.42391H85.5ZM85.5 5.38043V6.3587H86.5V5.38043H85.5ZM85.5 7.33696V8.31522H86.5V7.33696H85.5ZM85.5 9.29348V10.2717H86.5V9.29348H85.5ZM85.5 11.25V12.2283H86.5V11.25H85.5ZM85.5 13.2065V14.1848H86.5V13.2065H85.5ZM85.5 15.163V16.1413H86.5V15.163H85.5ZM85.5 17.1196V18.0978H86.5V17.1196H85.5ZM85.5 19.0761V20.0543H86.5V19.0761H85.5ZM85.5 21.0326V22.0109H86.5V21.0326H85.5ZM85.5 22.9891V23.9674H86.5V22.9891H85.5ZM85.5 24.9456V25.9239H86.5V24.9456H85.5ZM85.5 26.9022V27.8804H86.5V26.9022H85.5ZM85.5 28.8587V29.8369H86.5V28.8587H85.5ZM85.5 30.8152V31.7935H86.5V30.8152H85.5ZM85.5 32.7717V33.75H86.5V32.7717H85.5ZM85.5 34.7282V35.7065H86.5V34.7282H85.5ZM85.5 36.6848V37.663H86.5V36.6848H85.5ZM85.5 38.6413V39.6195H86.5V38.6413H85.5ZM85.5 40.5978V41.5761H86.5V40.5978H85.5ZM85.5 42.5543V43.5326H86.5V42.5543H85.5ZM85.5 44.5108V45H86.5V44.5108H85.5ZM89.5 0.48913V0H90.5V0.48913L89.5 0.48913ZM89.5 2.44565V1.46739H90.5V2.44565H89.5ZM89.5 4.40217V3.42391H90.5V4.40217H89.5ZM89.5 6.3587V5.38043H90.5V6.3587H89.5ZM89.5 8.31522V7.33696H90.5V8.31522H89.5ZM89.5 10.2717V9.29348H90.5V10.2717H89.5ZM89.5 12.2283V11.25H90.5V12.2283H89.5ZM89.5 14.1848V13.2065H90.5V14.1848H89.5ZM89.5 16.1413V15.163H90.5V16.1413H89.5ZM89.5 18.0978V17.1196H90.5V18.0978H89.5ZM89.5 20.0543V19.0761H90.5V20.0543H89.5ZM89.5 22.0109V21.0326H90.5V22.0109H89.5ZM89.5 23.9674V22.9891H90.5V23.9674H89.5ZM89.5 25.9239V24.9456H90.5V25.9239H89.5ZM89.5 27.8804V26.9022H90.5V27.8804H89.5ZM89.5 29.8369V28.8587H90.5V29.8369H89.5ZM89.5 31.7935V30.8152H90.5V31.7935H89.5ZM89.5 33.75V32.7717H90.5V33.75H89.5ZM89.5 35.7065V34.7282H90.5V35.7065H89.5ZM89.5 37.663V36.6848H90.5V37.663H89.5ZM89.5 39.6195V38.6413H90.5V39.6195H89.5ZM89.5 41.5761V40.5978H90.5V41.5761H89.5ZM89.5 43.5326V42.5543H90.5V43.5326H89.5ZM89.5 45V44.5108H90.5V45H89.5ZM93.5 0V0.48913L94.5 0.48913V0H93.5ZM93.5 1.46739V2.44565H94.5V1.46739H93.5ZM93.5 3.42391V4.40217H94.5V3.42391H93.5ZM93.5 5.38043V6.3587H94.5V5.38043H93.5ZM93.5 7.33696V8.31522H94.5V7.33696H93.5ZM93.5 9.29348V10.2717H94.5V9.29348H93.5ZM93.5 11.25V12.2283H94.5V11.25H93.5ZM93.5 13.2065V14.1848H94.5V13.2065H93.5ZM93.5 15.163V16.1413H94.5V15.163H93.5ZM93.5 17.1196V18.0978H94.5V17.1196H93.5ZM93.5 19.0761V20.0543H94.5V19.0761H93.5ZM93.5 21.0326V22.0109H94.5V21.0326H93.5ZM93.5 22.9891V23.9674H94.5V22.9891H93.5ZM93.5 24.9456V25.9239H94.5V24.9456H93.5ZM93.5 26.9022V27.8804H94.5V26.9022H93.5ZM93.5 28.8587V29.8369H94.5V28.8587H93.5ZM93.5 30.8152V31.7935H94.5V30.8152H93.5ZM93.5 32.7717V33.75H94.5V32.7717H93.5ZM93.5 34.7282V35.7065H94.5V34.7282H93.5ZM93.5 36.6848V37.663H94.5V36.6848H93.5ZM93.5 38.6413V39.6195H94.5V38.6413H93.5ZM93.5 40.5978V41.5761H94.5V40.5978H93.5ZM93.5 42.5543V43.5326H94.5V42.5543H93.5ZM93.5 44.5108V45H94.5V44.5108H93.5Z" fill="black"/>
<rect width="145" height="19" transform="translate(0 47)" fill="black"/>
<path d="M4.74512 59.6143H6.12598V59.6826C6.12598 60.2705 6.33333 60.6807 6.74805 60.9131C7.16276 61.141 7.71419 61.2549 8.40234 61.2549C9.00391 61.2549 9.50749 61.0794 9.91309 60.7285C10.3232 60.3776 10.5283 59.915 10.5283 59.3408C10.5283 58.876 10.3529 58.4954 10.002 58.1992C9.65104 57.9076 9.11784 57.6159 8.40234 57.3242L7.84863 57.0986C7.09668 56.7887 6.53385 56.4834 6.16016 56.1826C5.79102 55.8773 5.5153 55.54 5.33301 55.1709C5.15072 54.8018 5.05957 54.3893 5.05957 53.9336C5.05957 53.1315 5.34212 52.4548 5.90723 51.9033C6.47689 51.3519 7.36556 51.0762 8.57324 51.0762C9.68066 51.0762 10.46 51.2812 10.9111 51.6914C11.3623 52.1016 11.5879 52.5801 11.5879 53.127V53.1953H10.207V53.127C10.207 52.9538 10.1364 52.7829 9.99512 52.6143C9.8584 52.4456 9.65104 52.3249 9.37305 52.252C9.09505 52.1745 8.78971 52.1357 8.45703 52.1357C7.77799 52.1357 7.27441 52.3066 6.94629 52.6484C6.62272 52.9857 6.46094 53.3708 6.46094 53.8037C6.46094 54.0954 6.53841 54.3711 6.69336 54.6309C6.84831 54.8861 7.06022 55.098 7.3291 55.2666C7.60254 55.4352 8.06055 55.6608 8.70312 55.9434L9.35254 56.2236C10.3916 56.6748 11.0866 57.1488 11.4375 57.6455C11.7839 58.1423 11.957 58.6777 11.957 59.252C11.957 59.7852 11.8158 60.3024 11.5332 60.8037C11.2507 61.3005 10.8587 61.6787 10.3574 61.9385C9.85612 62.1937 9.18848 62.3213 8.35449 62.3213C7.56152 62.3213 6.89844 62.2256 6.36523 62.0342C5.83659 61.8473 5.43327 61.5374 5.15527 61.1045C4.88184 60.6715 4.74512 60.1976 4.74512 59.6826V59.6143ZM15.9834 61.6719L12.7021 54.3643H14.1104L16.667 60.0381L19.0596 54.3643H20.3379L17.1182 62.0068C16.6852 63.0368 16.3229 63.7181 16.0312 64.0508C15.7396 64.388 15.4297 64.625 15.1016 64.7617C14.778 64.8984 14.3451 64.9668 13.8027 64.9668H12.8457V63.9072H13.5635C13.9144 63.9072 14.222 63.8594 14.4863 63.7637C14.7507 63.6725 14.9694 63.5244 15.1426 63.3193C15.3203 63.1143 15.5573 62.6631 15.8535 61.9658L15.9834 61.6719ZM21.0352 59.9834H22.3066V60.0107C22.3066 60.3389 22.432 60.6123 22.6826 60.8311C22.9333 61.0452 23.3571 61.1523 23.9541 61.1523C24.4782 61.1523 24.902 61.0247 25.2256 60.7695C25.5537 60.5143 25.7178 60.2135 25.7178 59.8672C25.7178 59.3978 25.3988 59.0651 24.7607 58.8691L24.1113 58.6709L23.6807 58.5342L22.7988 58.2607C21.7917 57.8916 21.2881 57.2786 21.2881 56.4219C21.2881 55.8203 21.5319 55.2917 22.0195 54.8359C22.5072 54.3802 23.2318 54.1523 24.1934 54.1523C25.1413 54.1523 25.8158 54.3483 26.2168 54.7402C26.6178 55.1276 26.8184 55.5583 26.8184 56.0322V56.0596H25.54V56.0322C25.54 55.777 25.4102 55.5765 25.1504 55.4307C24.8952 55.2848 24.5534 55.2119 24.125 55.2119C23.6146 55.2119 23.2227 55.319 22.9492 55.5332C22.6803 55.7428 22.5459 56.0026 22.5459 56.3125C22.5459 56.5495 22.6325 56.7432 22.8057 56.8936C22.9834 57.0394 23.2796 57.1715 23.6943 57.29L24.3096 57.4609L24.7539 57.5908C25.3737 57.7686 25.7588 57.8939 25.9092 57.9668C26.0641 58.0397 26.2191 58.1331 26.374 58.2471C26.5882 58.4111 26.7454 58.6094 26.8457 58.8418C26.9505 59.0742 27.0029 59.3454 27.0029 59.6553C27.0029 60.3753 26.7432 60.9814 26.2236 61.4736C25.7087 61.9658 24.9544 62.2119 23.9609 62.2119C23.332 62.2119 22.8102 62.1185 22.3955 61.9316C21.9808 61.7448 21.6504 61.4873 21.4043 61.1592C21.1582 60.8265 21.0352 60.4437 21.0352 60.0107V59.9834ZM33.3125 60.9199V61.9863C32.6927 62.1367 32.2188 62.2119 31.8906 62.2119C31.4167 62.2119 30.9883 62.1162 30.6055 61.9248C30.2272 61.7334 29.9378 61.4554 29.7373 61.0908C29.5413 60.7262 29.4434 60.1452 29.4434 59.3477V55.4238H28.1172V54.3643H29.4434V52.5596H30.7148V54.3643H32.9434V55.4238H30.7148V58.9854C30.7148 59.6598 30.7673 60.1292 30.8721 60.3936C30.9769 60.6533 31.141 60.8447 31.3643 60.9678C31.5921 61.0908 31.8633 61.1523 32.1777 61.1523C32.4284 61.1523 32.8066 61.0749 33.3125 60.9199ZM39.8408 60.0381H41.1123V60.1064C41.1123 60.4437 40.9779 60.7878 40.709 61.1387C40.4401 61.4896 40.0846 61.7562 39.6426 61.9385C39.2005 62.1208 38.6924 62.2119 38.1182 62.2119C36.9561 62.2119 36.0583 61.8359 35.4248 61.084C34.7959 60.332 34.4814 59.3818 34.4814 58.2334C34.4814 57.0576 34.8141 56.0846 35.4795 55.3145C36.1494 54.5397 37.0107 54.1523 38.0635 54.1523C38.6423 54.1523 39.1663 54.2777 39.6357 54.5283C40.1051 54.779 40.4766 55.1709 40.75 55.7041C41.0234 56.2327 41.1602 56.971 41.1602 57.9189V58.3428H35.7393C35.7393 59.1585 35.958 59.8307 36.3955 60.3594C36.8376 60.888 37.4482 61.1523 38.2275 61.1523C38.7881 61.1523 39.196 61.0452 39.4512 60.8311C39.7109 60.6123 39.8408 60.3708 39.8408 60.1064V60.0381ZM35.8213 57.3857H39.9434V57.2354C39.9434 56.8799 39.8568 56.5358 39.6836 56.2031C39.515 55.8659 39.2803 55.6175 38.9795 55.458C38.6787 55.2939 38.3278 55.2119 37.9268 55.2119C37.4528 55.2119 37.0153 55.4033 36.6143 55.7861C36.2132 56.1644 35.9489 56.6976 35.8213 57.3857ZM44.1885 62H42.917V54.3643H44.1885V55.7451C44.4482 55.2848 44.6943 54.9544 44.9268 54.7539C45.1637 54.5534 45.4212 54.403 45.6992 54.3027C45.9772 54.2025 46.2734 54.1523 46.5879 54.1523C46.9023 54.1523 47.2031 54.2025 47.4902 54.3027C47.7773 54.3984 48.0257 54.5443 48.2354 54.7402C48.445 54.9362 48.6523 55.2712 48.8574 55.7451C49.1172 55.3031 49.3724 54.9795 49.623 54.7744C49.8783 54.5648 50.138 54.4098 50.4023 54.3096C50.6712 54.2048 50.9561 54.1523 51.2568 54.1523C51.6898 54.1523 52.0817 54.2549 52.4326 54.46C52.7835 54.6605 53.0524 54.9476 53.2393 55.3213C53.4307 55.695 53.5264 56.3307 53.5264 57.2285V62H52.248V57.7549C52.248 56.8571 52.1934 56.2897 52.084 56.0527C51.9792 55.8158 51.8311 55.6357 51.6396 55.5127C51.4528 55.3851 51.2249 55.3213 50.9561 55.3213C50.5778 55.3213 50.2292 55.4398 49.9102 55.6768C49.5911 55.9092 49.3359 56.2236 49.1445 56.6201C48.9531 57.0166 48.8574 57.5726 48.8574 58.2881V62H47.5859V57.7549C47.5859 56.8571 47.5358 56.2897 47.4355 56.0527C47.3398 55.8158 47.1849 55.6335 46.9707 55.5059C46.7565 55.3783 46.5264 55.3145 46.2803 55.3145C45.9339 55.3145 45.5921 55.4375 45.2549 55.6836C44.9222 55.9251 44.6602 56.2487 44.4688 56.6543C44.2819 57.0553 44.1885 57.5999 44.1885 58.2881V62ZM61.8184 56.6953V55.6357H62.6113C63.2311 55.6357 63.7165 55.5378 64.0674 55.3418C64.4183 55.1458 64.6963 54.902 64.9014 54.6104C65.1064 54.3141 65.209 53.9837 65.209 53.6191C65.209 53.1589 65.0404 52.7965 64.7031 52.5322C64.3659 52.2679 63.9193 52.1357 63.3633 52.1357C63.0443 52.1357 62.7458 52.1768 62.4678 52.2588C62.1898 52.3408 61.9756 52.4798 61.8252 52.6758C61.6794 52.8717 61.6064 53.0768 61.6064 53.291V53.3594H60.3896V53.291C60.3896 52.735 60.6243 52.2269 61.0938 51.7666C61.5632 51.3063 62.3424 51.0762 63.4316 51.0762C64.4661 51.0762 65.2432 51.2972 65.7627 51.7393C66.2822 52.1813 66.542 52.751 66.542 53.4482C66.542 53.8311 66.4668 54.1888 66.3164 54.5215C66.166 54.8496 65.9427 55.1436 65.6465 55.4033C65.3548 55.6631 64.9333 55.8727 64.3818 56.0322C65.2432 56.2783 65.888 56.6452 66.3164 57.1328C66.7448 57.6159 66.959 58.2197 66.959 58.9443C66.959 59.7965 66.6582 60.5736 66.0566 61.2754C65.4596 61.9727 64.5527 62.3213 63.3359 62.3213C62.2741 62.3213 61.4993 62.0957 61.0117 61.6445C60.5241 61.1888 60.2803 60.6761 60.2803 60.1064V60.0381H61.5518V60.1064C61.5518 60.4893 61.7295 60.7764 62.085 60.9678C62.445 61.1592 62.9053 61.2549 63.4658 61.2549C63.9033 61.2549 64.2884 61.1751 64.6211 61.0156C64.9538 60.8516 65.2067 60.5872 65.3799 60.2227C65.5531 59.8581 65.6396 59.4616 65.6396 59.0332C65.6396 58.3724 65.3776 57.8187 64.8535 57.3721C64.334 56.9209 63.5365 56.6953 62.4609 56.6953H61.8184ZM71.4707 62H69.666V60.1953H71.4707V62ZM77.3633 62.3213C76.2103 62.3213 75.276 61.8177 74.5605 60.8105C73.8496 59.7988 73.4941 58.4271 73.4941 56.6953C73.4941 54.9635 73.8496 53.5941 74.5605 52.5869C75.276 51.5798 76.2103 51.0762 77.3633 51.0762C78.5208 51.0762 79.4551 51.5798 80.166 52.5869C80.8815 53.5941 81.2393 54.9635 81.2393 56.6953C81.2393 58.4271 80.8815 59.7988 80.166 60.8105C79.4551 61.8177 78.5208 62.3213 77.3633 62.3213ZM77.3633 61.2549C78.2611 61.2549 78.9105 60.7946 79.3115 59.874C79.7126 58.9489 79.9131 57.8893 79.9131 56.6953C79.9131 55.5059 79.7126 54.4486 79.3115 53.5234C78.9105 52.5983 78.2611 52.1357 77.3633 52.1357C76.4701 52.1357 75.8229 52.5983 75.4219 53.5234C75.0208 54.4486 74.8203 55.5059 74.8203 56.6953C74.8203 57.8893 75.0208 58.9489 75.4219 59.874C75.8229 60.7946 76.4701 61.2549 77.3633 61.2549ZM88.2529 62.3213H87.0361L92.7373 51.0762H93.9268L88.2529 62.3213ZM99.9287 62V51.3906H105.924V52.5596H101.31V56.2168H105.336V57.2832H101.31V62H99.9287ZM107.681 54.3643H108.952V62H107.681V54.3643ZM107.681 52.6689V51.3906H108.952V52.6689H107.681ZM112.247 62H110.976V54.3643H112.247V55.6836C112.516 55.2689 112.776 54.9613 113.026 54.7607C113.282 54.5602 113.546 54.4098 113.819 54.3096C114.097 54.2048 114.405 54.1523 114.742 54.1523C115.221 54.1523 115.649 54.2503 116.027 54.4463C116.41 54.6423 116.706 54.9316 116.916 55.3145C117.126 55.6927 117.23 56.3011 117.23 57.1396V62H115.959V57.6865C115.959 57.0029 115.913 56.5199 115.822 56.2373C115.731 55.9502 115.553 55.7269 115.289 55.5674C115.025 55.4033 114.738 55.3213 114.428 55.3213C114.054 55.3213 113.699 55.4307 113.361 55.6494C113.024 55.8682 112.753 56.1735 112.548 56.5654C112.347 56.9574 112.247 57.5179 112.247 58.2471V62ZM124.401 50.9668H125.673V62H124.401V60.6738C124.142 61.166 123.889 61.5078 123.643 61.6992C123.396 61.8906 123.118 62.0228 122.809 62.0957C122.503 62.1732 122.2 62.2119 121.899 62.2119C121.325 62.2119 120.797 62.0547 120.313 61.7402C119.83 61.4212 119.454 60.9473 119.186 60.3184C118.917 59.6895 118.782 58.9831 118.782 58.1992C118.782 57.0371 119.062 56.0732 119.623 55.3076C120.184 54.5374 120.965 54.1523 121.968 54.1523C122.296 54.1523 122.604 54.2002 122.891 54.2959C123.178 54.387 123.433 54.526 123.656 54.7129C123.884 54.8952 124.132 55.2233 124.401 55.6973V50.9668ZM124.401 58.1787C124.401 57.3128 124.215 56.6019 123.841 56.0459C123.467 55.4899 122.943 55.2119 122.269 55.2119C121.649 55.2119 121.134 55.458 120.724 55.9502C120.313 56.4424 120.108 57.1784 120.108 58.1582C120.108 59.3021 120.307 60.0973 120.703 60.5439C121.1 60.986 121.61 61.207 122.234 61.207C122.64 61.207 123.016 61.084 123.362 60.8379C123.713 60.5918 123.973 60.2295 124.142 59.751C124.315 59.2725 124.401 58.7484 124.401 58.1787ZM132.577 60.0381H133.849V60.1064C133.849 60.4437 133.714 60.7878 133.445 61.1387C133.176 61.4896 132.821 61.7562 132.379 61.9385C131.937 62.1208 131.429 62.2119 130.854 62.2119C129.692 62.2119 128.795 61.8359 128.161 61.084C127.532 60.332 127.218 59.3818 127.218 58.2334C127.218 57.0576 127.55 56.0846 128.216 55.3145C128.886 54.5397 129.747 54.1523 130.8 54.1523C131.379 54.1523 131.903 54.2777 132.372 54.5283C132.841 54.779 133.213 55.1709 133.486 55.7041C133.76 56.2327 133.896 56.971 133.896 57.9189V58.3428H128.476C128.476 59.1585 128.694 59.8307 129.132 60.3594C129.574 60.888 130.185 61.1523 130.964 61.1523C131.524 61.1523 131.932 61.0452 132.188 60.8311C132.447 60.6123 132.577 60.3708 132.577 60.1064V60.0381ZM128.558 57.3857H132.68V57.2354C132.68 56.8799 132.593 56.5358 132.42 56.2031C132.251 55.8659 132.017 55.6175 131.716 55.458C131.415 55.2939 131.064 55.2119 130.663 55.2119C130.189 55.2119 129.752 55.4033 129.351 55.7861C128.95 56.1644 128.685 56.6976 128.558 57.3857ZM136.925 62H135.653V54.3643H136.925V55.7109C137.134 55.3236 137.362 55.0228 137.608 54.8086C137.859 54.5944 138.123 54.4326 138.401 54.3232C138.684 54.2093 138.971 54.1523 139.263 54.1523C139.527 54.1523 139.755 54.1911 139.946 54.2686V55.5879C139.646 55.4421 139.326 55.3691 138.989 55.3691C138.511 55.3691 138.046 55.5788 137.595 55.998C137.148 56.4173 136.925 57.1602 136.925 58.2266V62Z" fill="white"/>
</svg>
