<svg width="59" height="67" viewBox="0 0 59 67" fill="none" xmlns="http://www.w3.org/2000/svg">
<path d="M9 46.3475H50C51.1046 46.3475 52 45.4521 52 44.3475V8.23414C52 7.77527 51.8422 7.33034 51.5531 6.97401L47.3062 1.73986C46.9264 1.27182 46.3559 1 45.7531 1H9C7.89543 1 7 1.89543 7 3V44.3475C7 45.4521 7.89543 46.3475 9 46.3475Z" fill="white" stroke="black"/>
<path d="M13.0882 47V29.7518C13.0882 28.6472 13.9836 27.7518 15.0882 27.7518H44.4411C45.5457 27.7518 46.4411 28.6472 46.4411 29.7518V47" stroke="black"/>
<path d="M40.6176 1L40.6176 14.0071C40.6176 15.1117 39.7222 16.0071 38.6176 16.0071L19.3235 16.0071C18.2189 16.0071 17.3235 15.1117 17.3235 14.0071L17.3235 1.00001" stroke="black"/>
<rect x="30" y="4.10992" width="5.88235" height="8.78723" rx="1.5" fill="white" stroke="black"/>
<rect width="59" height="19" transform="translate(0 48)" fill="white"/>
<path d="M4.74512 60.6143H6.12598V60.6826C6.12598 61.2705 6.33333 61.6807 6.74805 61.9131C7.16276 62.141 7.71419 62.2549 8.40234 62.2549C9.00391 62.2549 9.50749 62.0794 9.91309 61.7285C10.3232 61.3776 10.5283 60.915 10.5283 60.3408C10.5283 59.876 10.3529 59.4954 10.002 59.1992C9.65104 58.9076 9.11784 58.6159 8.40234 58.3242L7.84863 58.0986C7.09668 57.7887 6.53385 57.4834 6.16016 57.1826C5.79102 56.8773 5.5153 56.54 5.33301 56.1709C5.15072 55.8018 5.05957 55.3893 5.05957 54.9336C5.05957 54.1315 5.34212 53.4548 5.90723 52.9033C6.47689 52.3519 7.36556 52.0762 8.57324 52.0762C9.68066 52.0762 10.46 52.2812 10.9111 52.6914C11.3623 53.1016 11.5879 53.5801 11.5879 54.127V54.1953H10.207V54.127C10.207 53.9538 10.1364 53.7829 9.99512 53.6143C9.8584 53.4456 9.65104 53.3249 9.37305 53.252C9.09505 53.1745 8.78971 53.1357 8.45703 53.1357C7.77799 53.1357 7.27441 53.3066 6.94629 53.6484C6.62272 53.9857 6.46094 54.3708 6.46094 54.8037C6.46094 55.0954 6.53841 55.3711 6.69336 55.6309C6.84831 55.8861 7.06022 56.098 7.3291 56.2666C7.60254 56.4352 8.06055 56.6608 8.70312 56.9434L9.35254 57.2236C10.3916 57.6748 11.0866 58.1488 11.4375 58.6455C11.7839 59.1423 11.957 59.6777 11.957 60.252C11.957 60.7852 11.8158 61.3024 11.5332 61.8037C11.2507 62.3005 10.8587 62.6787 10.3574 62.9385C9.85612 63.1937 9.18848 63.3213 8.35449 63.3213C7.56152 63.3213 6.89844 63.2256 6.36523 63.0342C5.83659 62.8473 5.43327 62.5374 5.15527 62.1045C4.88184 61.6715 4.74512 61.1976 4.74512 60.6826V60.6143ZM15.9834 62.6719L12.7021 55.3643H14.1104L16.667 61.0381L19.0596 55.3643H20.3379L17.1182 63.0068C16.6852 64.0368 16.3229 64.7181 16.0312 65.0508C15.7396 65.388 15.4297 65.625 15.1016 65.7617C14.778 65.8984 14.3451 65.9668 13.8027 65.9668H12.8457V64.9072H13.5635C13.9144 64.9072 14.222 64.8594 14.4863 64.7637C14.7507 64.6725 14.9694 64.5244 15.1426 64.3193C15.3203 64.1143 15.5573 63.6631 15.8535 62.9658L15.9834 62.6719ZM21.0352 60.9834H22.3066V61.0107C22.3066 61.3389 22.432 61.6123 22.6826 61.8311C22.9333 62.0452 23.3571 62.1523 23.9541 62.1523C24.4782 62.1523 24.902 62.0247 25.2256 61.7695C25.5537 61.5143 25.7178 61.2135 25.7178 60.8672C25.7178 60.3978 25.3988 60.0651 24.7607 59.8691L24.1113 59.6709L23.6807 59.5342L22.7988 59.2607C21.7917 58.8916 21.2881 58.2786 21.2881 57.4219C21.2881 56.8203 21.5319 56.2917 22.0195 55.8359C22.5072 55.3802 23.2318 55.1523 24.1934 55.1523C25.1413 55.1523 25.8158 55.3483 26.2168 55.7402C26.6178 56.1276 26.8184 56.5583 26.8184 57.0322V57.0596H25.54V57.0322C25.54 56.777 25.4102 56.5765 25.1504 56.4307C24.8952 56.2848 24.5534 56.2119 24.125 56.2119C23.6146 56.2119 23.2227 56.319 22.9492 56.5332C22.6803 56.7428 22.5459 57.0026 22.5459 57.3125C22.5459 57.5495 22.6325 57.7432 22.8057 57.8936C22.9834 58.0394 23.2796 58.1715 23.6943 58.29L24.3096 58.4609L24.7539 58.5908C25.3737 58.7686 25.7588 58.8939 25.9092 58.9668C26.0641 59.0397 26.2191 59.1331 26.374 59.2471C26.5882 59.4111 26.7454 59.6094 26.8457 59.8418C26.9505 60.0742 27.0029 60.3454 27.0029 60.6553C27.0029 61.3753 26.7432 61.9814 26.2236 62.4736C25.7087 62.9658 24.9544 63.2119 23.9609 63.2119C23.332 63.2119 22.8102 63.1185 22.3955 62.9316C21.9808 62.7448 21.6504 62.4873 21.4043 62.1592C21.1582 61.8265 21.0352 61.4437 21.0352 61.0107V60.9834ZM33.3125 61.9199V62.9863C32.6927 63.1367 32.2188 63.2119 31.8906 63.2119C31.4167 63.2119 30.9883 63.1162 30.6055 62.9248C30.2272 62.7334 29.9378 62.4554 29.7373 62.0908C29.5413 61.7262 29.4434 61.1452 29.4434 60.3477V56.4238H28.1172V55.3643H29.4434V53.5596H30.7148V55.3643H32.9434V56.4238H30.7148V59.9854C30.7148 60.6598 30.7673 61.1292 30.8721 61.3936C30.9769 61.6533 31.141 61.8447 31.3643 61.9678C31.5921 62.0908 31.8633 62.1523 32.1777 62.1523C32.4284 62.1523 32.8066 62.0749 33.3125 61.9199ZM39.8408 61.0381H41.1123V61.1064C41.1123 61.4437 40.9779 61.7878 40.709 62.1387C40.4401 62.4896 40.0846 62.7562 39.6426 62.9385C39.2005 63.1208 38.6924 63.2119 38.1182 63.2119C36.9561 63.2119 36.0583 62.8359 35.4248 62.084C34.7959 61.332 34.4814 60.3818 34.4814 59.2334C34.4814 58.0576 34.8141 57.0846 35.4795 56.3145C36.1494 55.5397 37.0107 55.1523 38.0635 55.1523C38.6423 55.1523 39.1663 55.2777 39.6357 55.5283C40.1051 55.779 40.4766 56.1709 40.75 56.7041C41.0234 57.2327 41.1602 57.971 41.1602 58.9189V59.3428H35.7393C35.7393 60.1585 35.958 60.8307 36.3955 61.3594C36.8376 61.888 37.4482 62.1523 38.2275 62.1523C38.7881 62.1523 39.196 62.0452 39.4512 61.8311C39.7109 61.6123 39.8408 61.3708 39.8408 61.1064V61.0381ZM35.8213 58.3857H39.9434V58.2354C39.9434 57.8799 39.8568 57.5358 39.6836 57.2031C39.515 56.8659 39.2803 56.6175 38.9795 56.458C38.6787 56.2939 38.3278 56.2119 37.9268 56.2119C37.4528 56.2119 37.0153 56.4033 36.6143 56.7861C36.2132 57.1644 35.9489 57.6976 35.8213 58.3857ZM44.1885 63H42.917V55.3643H44.1885V56.7451C44.4482 56.2848 44.6943 55.9544 44.9268 55.7539C45.1637 55.5534 45.4212 55.403 45.6992 55.3027C45.9772 55.2025 46.2734 55.1523 46.5879 55.1523C46.9023 55.1523 47.2031 55.2025 47.4902 55.3027C47.7773 55.3984 48.0257 55.5443 48.2354 55.7402C48.445 55.9362 48.6523 56.2712 48.8574 56.7451C49.1172 56.3031 49.3724 55.9795 49.623 55.7744C49.8783 55.5648 50.138 55.4098 50.4023 55.3096C50.6712 55.2048 50.9561 55.1523 51.2568 55.1523C51.6898 55.1523 52.0817 55.2549 52.4326 55.46C52.7835 55.6605 53.0524 55.9476 53.2393 56.3213C53.4307 56.695 53.5264 57.3307 53.5264 58.2285V63H52.248V58.7549C52.248 57.8571 52.1934 57.2897 52.084 57.0527C51.9792 56.8158 51.8311 56.6357 51.6396 56.5127C51.4528 56.3851 51.2249 56.3213 50.9561 56.3213C50.5778 56.3213 50.2292 56.4398 49.9102 56.6768C49.5911 56.9092 49.3359 57.2236 49.1445 57.6201C48.9531 58.0166 48.8574 58.5726 48.8574 59.2881V63H47.5859V58.7549C47.5859 57.8571 47.5358 57.2897 47.4355 57.0527C47.3398 56.8158 47.1849 56.6335 46.9707 56.5059C46.7565 56.3783 46.5264 56.3145 46.2803 56.3145C45.9339 56.3145 45.5921 56.4375 45.2549 56.6836C44.9222 56.9251 44.6602 57.2487 44.4688 57.6543C44.2819 58.0553 44.1885 58.5999 44.1885 59.2881V63Z" fill="black"/>
</svg>
