<svg width="105" height="56" viewBox="0 0 105 56" fill="none" xmlns="http://www.w3.org/2000/svg">
<rect x="30" y="6" width="45" height="29" rx="1.5" fill="black" stroke="black"/>
<path d="M36.4142 1.58579L32 6H51L47.0959 1.66207C46.7166 1.24064 46.1762 1 45.6093 1H37.8284C37.298 1 36.7893 1.21071 36.4142 1.58579Z" fill="black" stroke="black"/>
<rect width="105" height="19" transform="translate(0 36.5)" fill="black"/>
<path d="M4.74512 49.1143H6.12598V49.1826C6.12598 49.7705 6.33333 50.1807 6.74805 50.4131C7.16276 50.641 7.71419 50.7549 8.40234 50.7549C9.00391 50.7549 9.50749 50.5794 9.91309 50.2285C10.3232 49.8776 10.5283 49.415 10.5283 48.8408C10.5283 48.376 10.3529 47.9954 10.002 47.6992C9.65104 47.4076 9.11784 47.1159 8.40234 46.8242L7.84863 46.5986C7.09668 46.2887 6.53385 45.9834 6.16016 45.6826C5.79102 45.3773 5.5153 45.04 5.33301 44.6709C5.15072 44.3018 5.05957 43.8893 5.05957 43.4336C5.05957 42.6315 5.34212 41.9548 5.90723 41.4033C6.47689 40.8519 7.36556 40.5762 8.57324 40.5762C9.68066 40.5762 10.46 40.7812 10.9111 41.1914C11.3623 41.6016 11.5879 42.0801 11.5879 42.627V42.6953H10.207V42.627C10.207 42.4538 10.1364 42.2829 9.99512 42.1143C9.8584 41.9456 9.65104 41.8249 9.37305 41.752C9.09505 41.6745 8.78971 41.6357 8.45703 41.6357C7.77799 41.6357 7.27441 41.8066 6.94629 42.1484C6.62272 42.4857 6.46094 42.8708 6.46094 43.3037C6.46094 43.5954 6.53841 43.8711 6.69336 44.1309C6.84831 44.3861 7.06022 44.598 7.3291 44.7666C7.60254 44.9352 8.06055 45.1608 8.70312 45.4434L9.35254 45.7236C10.3916 46.1748 11.0866 46.6488 11.4375 47.1455C11.7839 47.6423 11.957 48.1777 11.957 48.752C11.957 49.2852 11.8158 49.8024 11.5332 50.3037C11.2507 50.8005 10.8587 51.1787 10.3574 51.4385C9.85612 51.6937 9.18848 51.8213 8.35449 51.8213C7.56152 51.8213 6.89844 51.7256 6.36523 51.5342C5.83659 51.3473 5.43327 51.0374 5.15527 50.6045C4.88184 50.1715 4.74512 49.6976 4.74512 49.1826V49.1143ZM15.9834 51.1719L12.7021 43.8643H14.1104L16.667 49.5381L19.0596 43.8643H20.3379L17.1182 51.5068C16.6852 52.5368 16.3229 53.2181 16.0312 53.5508C15.7396 53.888 15.4297 54.125 15.1016 54.2617C14.778 54.3984 14.3451 54.4668 13.8027 54.4668H12.8457V53.4072H13.5635C13.9144 53.4072 14.222 53.3594 14.4863 53.2637C14.7507 53.1725 14.9694 53.0244 15.1426 52.8193C15.3203 52.6143 15.5573 52.1631 15.8535 51.4658L15.9834 51.1719ZM21.0352 49.4834H22.3066V49.5107C22.3066 49.8389 22.432 50.1123 22.6826 50.3311C22.9333 50.5452 23.3571 50.6523 23.9541 50.6523C24.4782 50.6523 24.902 50.5247 25.2256 50.2695C25.5537 50.0143 25.7178 49.7135 25.7178 49.3672C25.7178 48.8978 25.3988 48.5651 24.7607 48.3691L24.1113 48.1709L23.6807 48.0342L22.7988 47.7607C21.7917 47.3916 21.2881 46.7786 21.2881 45.9219C21.2881 45.3203 21.5319 44.7917 22.0195 44.3359C22.5072 43.8802 23.2318 43.6523 24.1934 43.6523C25.1413 43.6523 25.8158 43.8483 26.2168 44.2402C26.6178 44.6276 26.8184 45.0583 26.8184 45.5322V45.5596H25.54V45.5322C25.54 45.277 25.4102 45.0765 25.1504 44.9307C24.8952 44.7848 24.5534 44.7119 24.125 44.7119C23.6146 44.7119 23.2227 44.819 22.9492 45.0332C22.6803 45.2428 22.5459 45.5026 22.5459 45.8125C22.5459 46.0495 22.6325 46.2432 22.8057 46.3936C22.9834 46.5394 23.2796 46.6715 23.6943 46.79L24.3096 46.9609L24.7539 47.0908C25.3737 47.2686 25.7588 47.3939 25.9092 47.4668C26.0641 47.5397 26.2191 47.6331 26.374 47.7471C26.5882 47.9111 26.7454 48.1094 26.8457 48.3418C26.9505 48.5742 27.0029 48.8454 27.0029 49.1553C27.0029 49.8753 26.7432 50.4814 26.2236 50.9736C25.7087 51.4658 24.9544 51.7119 23.9609 51.7119C23.332 51.7119 22.8102 51.6185 22.3955 51.4316C21.9808 51.2448 21.6504 50.9873 21.4043 50.6592C21.1582 50.3265 21.0352 49.9437 21.0352 49.5107V49.4834ZM33.3125 50.4199V51.4863C32.6927 51.6367 32.2188 51.7119 31.8906 51.7119C31.4167 51.7119 30.9883 51.6162 30.6055 51.4248C30.2272 51.2334 29.9378 50.9554 29.7373 50.5908C29.5413 50.2262 29.4434 49.6452 29.4434 48.8477V44.9238H28.1172V43.8643H29.4434V42.0596H30.7148V43.8643H32.9434V44.9238H30.7148V48.4854C30.7148 49.1598 30.7673 49.6292 30.8721 49.8936C30.9769 50.1533 31.141 50.3447 31.3643 50.4678C31.5921 50.5908 31.8633 50.6523 32.1777 50.6523C32.4284 50.6523 32.8066 50.5749 33.3125 50.4199ZM39.8408 49.5381H41.1123V49.6064C41.1123 49.9437 40.9779 50.2878 40.709 50.6387C40.4401 50.9896 40.0846 51.2562 39.6426 51.4385C39.2005 51.6208 38.6924 51.7119 38.1182 51.7119C36.9561 51.7119 36.0583 51.3359 35.4248 50.584C34.7959 49.832 34.4814 48.8818 34.4814 47.7334C34.4814 46.5576 34.8141 45.5846 35.4795 44.8145C36.1494 44.0397 37.0107 43.6523 38.0635 43.6523C38.6423 43.6523 39.1663 43.7777 39.6357 44.0283C40.1051 44.279 40.4766 44.6709 40.75 45.2041C41.0234 45.7327 41.1602 46.471 41.1602 47.4189V47.8428H35.7393C35.7393 48.6585 35.958 49.3307 36.3955 49.8594C36.8376 50.388 37.4482 50.6523 38.2275 50.6523C38.7881 50.6523 39.196 50.5452 39.4512 50.3311C39.7109 50.1123 39.8408 49.8708 39.8408 49.6064V49.5381ZM35.8213 46.8857H39.9434V46.7354C39.9434 46.3799 39.8568 46.0358 39.6836 45.7031C39.515 45.3659 39.2803 45.1175 38.9795 44.958C38.6787 44.7939 38.3278 44.7119 37.9268 44.7119C37.4528 44.7119 37.0153 44.9033 36.6143 45.2861C36.2132 45.6644 35.9489 46.1976 35.8213 46.8857ZM44.1885 51.5H42.917V43.8643H44.1885V45.2451C44.4482 44.7848 44.6943 44.4544 44.9268 44.2539C45.1637 44.0534 45.4212 43.903 45.6992 43.8027C45.9772 43.7025 46.2734 43.6523 46.5879 43.6523C46.9023 43.6523 47.2031 43.7025 47.4902 43.8027C47.7773 43.8984 48.0257 44.0443 48.2354 44.2402C48.445 44.4362 48.6523 44.7712 48.8574 45.2451C49.1172 44.8031 49.3724 44.4795 49.623 44.2744C49.8783 44.0648 50.138 43.9098 50.4023 43.8096C50.6712 43.7048 50.9561 43.6523 51.2568 43.6523C51.6898 43.6523 52.0817 43.7549 52.4326 43.96C52.7835 44.1605 53.0524 44.4476 53.2393 44.8213C53.4307 45.195 53.5264 45.8307 53.5264 46.7285V51.5H52.248V47.2549C52.248 46.3571 52.1934 45.7897 52.084 45.5527C51.9792 45.3158 51.8311 45.1357 51.6396 45.0127C51.4528 44.8851 51.2249 44.8213 50.9561 44.8213C50.5778 44.8213 50.2292 44.9398 49.9102 45.1768C49.5911 45.4092 49.3359 45.7236 49.1445 46.1201C48.9531 46.5166 48.8574 47.0726 48.8574 47.7881V51.5H47.5859V47.2549C47.5859 46.3571 47.5358 45.7897 47.4355 45.5527C47.3398 45.3158 47.1849 45.1335 46.9707 45.0059C46.7565 44.8783 46.5264 44.8145 46.2803 44.8145C45.9339 44.8145 45.5921 44.9375 45.2549 45.1836C44.9222 45.4251 44.6602 45.7487 44.4688 46.1543C44.2819 46.5553 44.1885 47.0999 44.1885 47.7881V51.5ZM60.1162 51.5V40.8906H66.1113V42.0596H61.4971V45.7168H65.5234V46.7832H61.4971V51.5H60.1162ZM71.1084 51.7119C70.1104 51.7119 69.2581 51.3747 68.5518 50.7002C67.8499 50.0212 67.499 49.014 67.499 47.6787C67.499 46.348 67.8499 45.3454 68.5518 44.6709C69.2581 43.9919 70.1104 43.6523 71.1084 43.6523C72.1019 43.6523 72.9495 43.9919 73.6514 44.6709C74.3577 45.3454 74.7109 46.348 74.7109 47.6787C74.7109 49.014 74.3577 50.0212 73.6514 50.7002C72.9495 51.3747 72.1019 51.7119 71.1084 51.7119ZM71.1084 50.6523C71.792 50.6523 72.3411 50.3812 72.7559 49.8389C73.1751 49.292 73.3848 48.5719 73.3848 47.6787C73.3848 46.79 73.1751 46.0745 72.7559 45.5322C72.3411 44.9854 71.792 44.7119 71.1084 44.7119C70.4202 44.7119 69.8665 44.9854 69.4473 45.5322C69.0326 46.0745 68.8252 46.79 68.8252 47.6787C68.8252 48.5719 69.0326 49.292 69.4473 49.8389C69.8665 50.3812 70.4202 50.6523 71.1084 50.6523ZM77.6299 51.5H76.3584V40.4668H77.6299V51.5ZM84.9033 40.4668H86.1748V51.5H84.9033V50.1738C84.6436 50.666 84.3906 51.0078 84.1445 51.1992C83.8984 51.3906 83.6204 51.5228 83.3105 51.5957C83.0052 51.6732 82.7021 51.7119 82.4014 51.7119C81.8271 51.7119 81.2985 51.5547 80.8154 51.2402C80.3324 50.9212 79.9564 50.4473 79.6875 49.8184C79.4186 49.1895 79.2842 48.4831 79.2842 47.6992C79.2842 46.5371 79.5645 45.5732 80.125 44.8076C80.6855 44.0374 81.4671 43.6523 82.4697 43.6523C82.7979 43.6523 83.1055 43.7002 83.3926 43.7959C83.6797 43.887 83.9349 44.026 84.1582 44.2129C84.3861 44.3952 84.6344 44.7233 84.9033 45.1973V40.4668ZM84.9033 47.6787C84.9033 46.8128 84.7165 46.1019 84.3428 45.5459C83.9691 44.9899 83.445 44.7119 82.7705 44.7119C82.1507 44.7119 81.6357 44.958 81.2256 45.4502C80.8154 45.9424 80.6104 46.6784 80.6104 47.6582C80.6104 48.8021 80.8086 49.5973 81.2051 50.0439C81.6016 50.486 82.112 50.707 82.7363 50.707C83.1419 50.707 83.5179 50.584 83.8643 50.3379C84.2152 50.0918 84.4749 49.7295 84.6436 49.251C84.8167 48.7725 84.9033 48.2484 84.9033 47.6787ZM93.0791 49.5381H94.3506V49.6064C94.3506 49.9437 94.2161 50.2878 93.9473 50.6387C93.6784 50.9896 93.3229 51.2562 92.8809 51.4385C92.4388 51.6208 91.9307 51.7119 91.3564 51.7119C90.1943 51.7119 89.2965 51.3359 88.6631 50.584C88.0342 49.832 87.7197 48.8818 87.7197 47.7334C87.7197 46.5576 88.0524 45.5846 88.7178 44.8145C89.3877 44.0397 90.249 43.6523 91.3018 43.6523C91.8805 43.6523 92.4046 43.7777 92.874 44.0283C93.3434 44.279 93.7148 44.6709 93.9883 45.2041C94.2617 45.7327 94.3984 46.471 94.3984 47.4189V47.8428H88.9775C88.9775 48.6585 89.1963 49.3307 89.6338 49.8594C90.0758 50.388 90.6865 50.6523 91.4658 50.6523C92.0264 50.6523 92.4342 50.5452 92.6895 50.3311C92.9492 50.1123 93.0791 49.8708 93.0791 49.6064V49.5381ZM89.0596 46.8857H93.1816V46.7354C93.1816 46.3799 93.0951 46.0358 92.9219 45.7031C92.7533 45.3659 92.5186 45.1175 92.2178 44.958C91.917 44.7939 91.5661 44.7119 91.165 44.7119C90.6911 44.7119 90.2536 44.9033 89.8525 45.2861C89.4515 45.6644 89.1872 46.1976 89.0596 46.8857ZM97.4268 51.5H96.1553V43.8643H97.4268V45.2109C97.6364 44.8236 97.8643 44.5228 98.1104 44.3086C98.361 44.0944 98.6253 43.9326 98.9033 43.8232C99.1859 43.7093 99.473 43.6523 99.7646 43.6523C100.029 43.6523 100.257 43.6911 100.448 43.7686V45.0879C100.147 44.9421 99.8285 44.8691 99.4912 44.8691C99.0127 44.8691 98.5479 45.0788 98.0967 45.498C97.6501 45.9173 97.4268 46.6602 97.4268 47.7266V51.5Z" fill="white"/>
</svg>
