<svg width="83" height="67" viewBox="0 0 83 67" fill="none" xmlns="http://www.w3.org/2000/svg">
<path d="M40.4524 1L19.5 23.2581L41.8492 47L62.8016 24.7419L40.4524 1Z" stroke="black"/>
<path d="M52.3254 21.7742L59.3095 29.1935V38.0968H56.5158V36.6129H46.0397L44.6428 35.129H43.246L39.0555 30.6774V29.1935L40.4524 27.7097V26.2258L44.6428 21.7742H52.3254Z" fill="white"/>
<path d="M40.4524 27.7097V26.2258L44.6428 21.7742H52.3254L59.3095 29.1935V38.0968H56.5158V36.6129H46.0397L44.6428 35.129H43.246L39.0555 30.6774V29.1935M40.4524 27.7097H43.246M40.4524 27.7097L39.0555 29.1935M43.246 27.7097L44.6428 26.2258H46.0397L47.4365 27.7097V29.1935M43.246 27.7097V29.1935L44.6428 30.6774H46.0397L47.4365 29.1935M47.4365 29.1935H53.7222M39.0555 29.1935H34.8651" stroke="black"/>
<rect x="59.3095" y="28.4516" width="4.19048" height="11.871" fill="black"/>
<rect x="43.246" y="28.4516" width="4.19048" height="1.48387" fill="black"/>
<rect width="83" height="19" transform="translate(0 48)" fill="white"/>
<path d="M4.74512 60.6143H6.12598V60.6826C6.12598 61.2705 6.33333 61.6807 6.74805 61.9131C7.16276 62.141 7.71419 62.2549 8.40234 62.2549C9.00391 62.2549 9.50749 62.0794 9.91309 61.7285C10.3232 61.3776 10.5283 60.915 10.5283 60.3408C10.5283 59.876 10.3529 59.4954 10.002 59.1992C9.65104 58.9076 9.11784 58.6159 8.40234 58.3242L7.84863 58.0986C7.09668 57.7887 6.53385 57.4834 6.16016 57.1826C5.79102 56.8773 5.5153 56.54 5.33301 56.1709C5.15072 55.8018 5.05957 55.3893 5.05957 54.9336C5.05957 54.1315 5.34212 53.4548 5.90723 52.9033C6.47689 52.3519 7.36556 52.0762 8.57324 52.0762C9.68066 52.0762 10.46 52.2812 10.9111 52.6914C11.3623 53.1016 11.5879 53.5801 11.5879 54.127V54.1953H10.207V54.127C10.207 53.9538 10.1364 53.7829 9.99512 53.6143C9.8584 53.4456 9.65104 53.3249 9.37305 53.252C9.09505 53.1745 8.78971 53.1357 8.45703 53.1357C7.77799 53.1357 7.27441 53.3066 6.94629 53.6484C6.62272 53.9857 6.46094 54.3708 6.46094 54.8037C6.46094 55.0954 6.53841 55.3711 6.69336 55.6309C6.84831 55.8861 7.06022 56.098 7.3291 56.2666C7.60254 56.4352 8.06055 56.6608 8.70312 56.9434L9.35254 57.2236C10.3916 57.6748 11.0866 58.1488 11.4375 58.6455C11.7839 59.1423 11.957 59.6777 11.957 60.252C11.957 60.7852 11.8158 61.3024 11.5332 61.8037C11.2507 62.3005 10.8587 62.6787 10.3574 62.9385C9.85612 63.1937 9.18848 63.3213 8.35449 63.3213C7.56152 63.3213 6.89844 63.2256 6.36523 63.0342C5.83659 62.8473 5.43327 62.5374 5.15527 62.1045C4.88184 61.6715 4.74512 61.1976 4.74512 60.6826V60.6143ZM15.9834 62.6719L12.7021 55.3643H14.1104L16.667 61.0381L19.0596 55.3643H20.3379L17.1182 63.0068C16.6852 64.0368 16.3229 64.7181 16.0312 65.0508C15.7396 65.388 15.4297 65.625 15.1016 65.7617C14.778 65.8984 14.3451 65.9668 13.8027 65.9668H12.8457V64.9072H13.5635C13.9144 64.9072 14.222 64.8594 14.4863 64.7637C14.7507 64.6725 14.9694 64.5244 15.1426 64.3193C15.3203 64.1143 15.5573 63.6631 15.8535 62.9658L15.9834 62.6719ZM21.0352 60.9834H22.3066V61.0107C22.3066 61.3389 22.432 61.6123 22.6826 61.8311C22.9333 62.0452 23.3571 62.1523 23.9541 62.1523C24.4782 62.1523 24.902 62.0247 25.2256 61.7695C25.5537 61.5143 25.7178 61.2135 25.7178 60.8672C25.7178 60.3978 25.3988 60.0651 24.7607 59.8691L24.1113 59.6709L23.6807 59.5342L22.7988 59.2607C21.7917 58.8916 21.2881 58.2786 21.2881 57.4219C21.2881 56.8203 21.5319 56.2917 22.0195 55.8359C22.5072 55.3802 23.2318 55.1523 24.1934 55.1523C25.1413 55.1523 25.8158 55.3483 26.2168 55.7402C26.6178 56.1276 26.8184 56.5583 26.8184 57.0322V57.0596H25.54V57.0322C25.54 56.777 25.4102 56.5765 25.1504 56.4307C24.8952 56.2848 24.5534 56.2119 24.125 56.2119C23.6146 56.2119 23.2227 56.319 22.9492 56.5332C22.6803 56.7428 22.5459 57.0026 22.5459 57.3125C22.5459 57.5495 22.6325 57.7432 22.8057 57.8936C22.9834 58.0394 23.2796 58.1715 23.6943 58.29L24.3096 58.4609L24.7539 58.5908C25.3737 58.7686 25.7588 58.8939 25.9092 58.9668C26.0641 59.0397 26.2191 59.1331 26.374 59.2471C26.5882 59.4111 26.7454 59.6094 26.8457 59.8418C26.9505 60.0742 27.0029 60.3454 27.0029 60.6553C27.0029 61.3753 26.7432 61.9814 26.2236 62.4736C25.7087 62.9658 24.9544 63.2119 23.9609 63.2119C23.332 63.2119 22.8102 63.1185 22.3955 62.9316C21.9808 62.7448 21.6504 62.4873 21.4043 62.1592C21.1582 61.8265 21.0352 61.4437 21.0352 61.0107V60.9834ZM36.3203 52.3906H37.6055L33.2783 63H31.8906L27.8506 52.3906H29.3545L32.7178 61.2842L36.3203 52.3906ZM43.8193 61.0381H45.0908V61.1064C45.0908 61.4437 44.9564 61.7878 44.6875 62.1387C44.4186 62.4896 44.0632 62.7562 43.6211 62.9385C43.179 63.1208 42.6709 63.2119 42.0967 63.2119C40.9346 63.2119 40.0368 62.8359 39.4033 62.084C38.7744 61.332 38.46 60.3818 38.46 59.2334C38.46 58.0576 38.7926 57.0846 39.458 56.3145C40.1279 55.5397 40.9893 55.1523 42.042 55.1523C42.6208 55.1523 43.1449 55.2777 43.6143 55.5283C44.0837 55.779 44.4551 56.1709 44.7285 56.7041C45.002 57.2327 45.1387 57.971 45.1387 58.9189V59.3428H39.7178C39.7178 60.1585 39.9365 60.8307 40.374 61.3594C40.8161 61.888 41.4268 62.1523 42.2061 62.1523C42.7666 62.1523 43.1745 62.0452 43.4297 61.8311C43.6895 61.6123 43.8193 61.3708 43.8193 61.1064V61.0381ZM39.7998 58.3857H43.9219V58.2354C43.9219 57.8799 43.8353 57.5358 43.6621 57.2031C43.4935 56.8659 43.2588 56.6175 42.958 56.458C42.6572 56.2939 42.3063 56.2119 41.9053 56.2119C41.4313 56.2119 40.9938 56.4033 40.5928 56.7861C40.1917 57.1644 39.9274 57.6976 39.7998 58.3857ZM48.167 63H46.8955V55.3643H48.167V56.7109C48.3766 56.3236 48.6045 56.0228 48.8506 55.8086C49.1012 55.5944 49.3656 55.4326 49.6436 55.3232C49.9261 55.2093 50.2132 55.1523 50.5049 55.1523C50.7692 55.1523 50.9971 55.1911 51.1885 55.2686V56.5879C50.8877 56.4421 50.5687 56.3691 50.2314 56.3691C49.7529 56.3691 49.2881 56.5788 48.8369 56.998C48.3903 57.4173 48.167 58.1602 48.167 59.2266V63ZM51.8379 60.9834H53.1094V61.0107C53.1094 61.3389 53.2347 61.6123 53.4854 61.8311C53.736 62.0452 54.1598 62.1523 54.7568 62.1523C55.2809 62.1523 55.7048 62.0247 56.0283 61.7695C56.3564 61.5143 56.5205 61.2135 56.5205 60.8672C56.5205 60.3978 56.2015 60.0651 55.5635 59.8691L54.9141 59.6709L54.4834 59.5342L53.6016 59.2607C52.5944 58.8916 52.0908 58.2786 52.0908 57.4219C52.0908 56.8203 52.3346 56.2917 52.8223 55.8359C53.3099 55.3802 54.0345 55.1523 54.9961 55.1523C55.944 55.1523 56.6185 55.3483 57.0195 55.7402C57.4206 56.1276 57.6211 56.5583 57.6211 57.0322V57.0596H56.3428V57.0322C56.3428 56.777 56.2129 56.5765 55.9531 56.4307C55.6979 56.2848 55.3561 56.2119 54.9277 56.2119C54.4173 56.2119 54.0254 56.319 53.752 56.5332C53.4831 56.7428 53.3486 57.0026 53.3486 57.3125C53.3486 57.5495 53.4352 57.7432 53.6084 57.8936C53.7861 58.0394 54.0824 58.1715 54.4971 58.29L55.1123 58.4609L55.5566 58.5908C56.1764 58.7686 56.5615 58.8939 56.7119 58.9668C56.8669 59.0397 57.0218 59.1331 57.1768 59.2471C57.391 59.4111 57.5482 59.6094 57.6484 59.8418C57.7533 60.0742 57.8057 60.3454 57.8057 60.6553C57.8057 61.3753 57.5459 61.9814 57.0264 62.4736C56.5114 62.9658 55.7572 63.2119 54.7637 63.2119C54.1348 63.2119 53.613 63.1185 53.1982 62.9316C52.7835 62.7448 52.4531 62.4873 52.207 62.1592C51.9609 61.8265 51.8379 61.4437 51.8379 61.0107V60.9834ZM59.4463 55.3643H60.7178V63H59.4463V55.3643ZM59.4463 53.6689V52.3906H60.7178V53.6689H59.4463ZM65.9814 63.2119C64.9834 63.2119 64.1312 62.8747 63.4248 62.2002C62.723 61.5212 62.3721 60.514 62.3721 59.1787C62.3721 57.848 62.723 56.8454 63.4248 56.1709C64.1312 55.4919 64.9834 55.1523 65.9814 55.1523C66.9749 55.1523 67.8226 55.4919 68.5244 56.1709C69.2308 56.8454 69.584 57.848 69.584 59.1787C69.584 60.514 69.2308 61.5212 68.5244 62.2002C67.8226 62.8747 66.9749 63.2119 65.9814 63.2119ZM65.9814 62.1523C66.665 62.1523 67.2142 61.8812 67.6289 61.3389C68.0482 60.792 68.2578 60.0719 68.2578 59.1787C68.2578 58.29 68.0482 57.5745 67.6289 57.0322C67.2142 56.4854 66.665 56.2119 65.9814 56.2119C65.2933 56.2119 64.7396 56.4854 64.3203 57.0322C63.9056 57.5745 63.6982 58.29 63.6982 59.1787C63.6982 60.0719 63.9056 60.792 64.3203 61.3389C64.7396 61.8812 65.2933 62.1523 65.9814 62.1523ZM72.5029 63H71.2314V55.3643H72.5029V56.6836C72.7718 56.2689 73.0316 55.9613 73.2822 55.7607C73.5374 55.5602 73.8018 55.4098 74.0752 55.3096C74.3532 55.2048 74.6608 55.1523 74.998 55.1523C75.4766 55.1523 75.9049 55.2503 76.2832 55.4463C76.666 55.6423 76.9622 55.9316 77.1719 56.3145C77.3815 56.6927 77.4863 57.3011 77.4863 58.1396V63H76.2148V58.6865C76.2148 58.0029 76.1693 57.5199 76.0781 57.2373C75.987 56.9502 75.8092 56.7269 75.5449 56.5674C75.2806 56.4033 74.9935 56.3213 74.6836 56.3213C74.3099 56.3213 73.9544 56.4307 73.6172 56.6494C73.2799 56.8682 73.0088 57.1735 72.8037 57.5654C72.6032 57.9574 72.5029 58.5179 72.5029 59.2471V63Z" fill="black"/>
</svg>
