<svg width="46" height="66" viewBox="0 0 46 66" fill="none" xmlns="http://www.w3.org/2000/svg">
<rect x="19.5" y="0.5" width="8" height="1.93617" fill="white" stroke="black"/>
<rect x="7.5" y="2.45744" width="31" height="2.91489" fill="white" stroke="black"/>
<path d="M8.5 5.39362H37.5V44C37.5 44.8284 36.8284 45.5 36 45.5H10C9.17157 45.5 8.5 44.8284 8.5 44V5.39362Z" fill="white" stroke="black"/>
<path d="M13 9.78723L13.8989 10.667C14.2833 11.0433 14.5 11.5585 14.5 12.0964V39.0445C14.5 39.7203 14.1588 40.3503 13.5929 40.7195L13 41.1064" stroke="black"/>
<path d="M19 9.78723L19.8989 10.667C20.2833 11.0433 20.5 11.5585 20.5 12.0964V39.0445C20.5 39.7203 20.1588 40.3503 19.5929 40.7195L19 41.1064" stroke="black"/>
<path d="M25 9.78723L25.8989 10.667C26.2833 11.0433 26.5 11.5585 26.5 12.0964V39.0445C26.5 39.7203 26.1588 40.3503 25.5929 40.7195L25 41.1064" stroke="black"/>
<path d="M31 9.78723L31.8989 10.667C32.2833 11.0433 32.5 11.5585 32.5 12.0964V39.0445C32.5 39.7203 32.1588 40.3503 31.5929 40.7195L31 41.1064" stroke="black"/>
<rect width="46" height="19" transform="translate(0 47)" fill="white"/>
<path d="M7.82129 62V52.457H4.21191V51.3906H12.75V52.457H9.19531V62H7.82129ZM15.2451 62H13.9736V54.3643H15.2451V55.7109C15.4548 55.3236 15.6826 55.0228 15.9287 54.8086C16.1794 54.5944 16.4437 54.4326 16.7217 54.3232C17.0042 54.2093 17.2913 54.1523 17.583 54.1523C17.8473 54.1523 18.0752 54.1911 18.2666 54.2686V55.5879C17.9658 55.4421 17.6468 55.3691 17.3096 55.3691C16.8311 55.3691 16.3662 55.5788 15.915 55.998C15.4684 56.4173 15.2451 57.1602 15.2451 58.2266V62ZM24.0977 62C23.9655 61.5898 23.8994 61.2367 23.8994 60.9404C23.3434 61.4919 22.8672 61.8428 22.4707 61.9932C22.0788 62.139 21.7028 62.2119 21.3428 62.2119C20.7367 62.2119 20.2148 62.0273 19.7773 61.6582C19.3444 61.2845 19.1279 60.7718 19.1279 60.1201C19.1279 59.3818 19.4333 58.8122 20.0439 58.4111C20.6592 58.0101 21.7165 57.6637 23.2158 57.3721L23.8994 57.2422V56.3809C23.8994 55.9115 23.7422 55.5833 23.4277 55.3965C23.1133 55.2051 22.735 55.1094 22.293 55.1094C21.7643 55.1094 21.3519 55.2256 21.0557 55.458C20.7594 55.6904 20.6113 55.9616 20.6113 56.2715V56.3809H19.2305V56.2783C19.2305 55.9411 19.3717 55.5924 19.6543 55.2324C19.9414 54.8724 20.3197 54.6012 20.7891 54.4189C21.263 54.2367 21.7803 54.1455 22.3408 54.1455C22.8968 54.1455 23.4027 54.2321 23.8584 54.4053C24.3141 54.5785 24.6468 54.8132 24.8564 55.1094C25.0661 55.401 25.1709 55.9525 25.1709 56.7637V59.7305C25.1709 60.054 25.1777 60.3958 25.1914 60.7559C25.2096 61.1113 25.2917 61.526 25.4375 62H24.0977ZM23.8994 58.1445L23.5166 58.2402C22.2269 58.5547 21.402 58.8532 21.042 59.1357C20.682 59.4183 20.502 59.7555 20.502 60.1475C20.502 60.348 20.5544 60.5348 20.6592 60.708C20.7686 60.8812 20.9281 61.0156 21.1377 61.1113C21.3473 61.207 21.5547 61.2549 21.7598 61.2549C22.1152 61.2549 22.4639 61.1523 22.8057 60.9473C23.152 60.7376 23.4209 60.4596 23.6123 60.1133C23.8037 59.7669 23.8994 59.3636 23.8994 58.9033V58.1445ZM26.668 59.9834H27.9395V60.0107C27.9395 60.3389 28.0648 60.6123 28.3154 60.8311C28.5661 61.0452 28.9899 61.1523 29.5869 61.1523C30.111 61.1523 30.5348 61.0247 30.8584 60.7695C31.1865 60.5143 31.3506 60.2135 31.3506 59.8672C31.3506 59.3978 31.0316 59.0651 30.3936 58.8691L29.7441 58.6709L29.3135 58.5342L28.4316 58.2607C27.4245 57.8916 26.9209 57.2786 26.9209 56.4219C26.9209 55.8203 27.1647 55.2917 27.6523 54.8359C28.14 54.3802 28.8646 54.1523 29.8262 54.1523C30.7741 54.1523 31.4486 54.3483 31.8496 54.7402C32.2507 55.1276 32.4512 55.5583 32.4512 56.0322V56.0596H31.1729V56.0322C31.1729 55.777 31.043 55.5765 30.7832 55.4307C30.528 55.2848 30.1862 55.2119 29.7578 55.2119C29.2474 55.2119 28.8555 55.319 28.582 55.5332C28.3132 55.7428 28.1787 56.0026 28.1787 56.3125C28.1787 56.5495 28.2653 56.7432 28.4385 56.8936C28.6162 57.0394 28.9124 57.1715 29.3271 57.29L29.9424 57.4609L30.3867 57.5908C31.0065 57.7686 31.3916 57.8939 31.542 57.9668C31.6969 58.0397 31.8519 58.1331 32.0068 58.2471C32.221 58.4111 32.3783 58.6094 32.4785 58.8418C32.5833 59.0742 32.6357 59.3454 32.6357 59.6553C32.6357 60.3753 32.376 60.9814 31.8564 61.4736C31.3415 61.9658 30.5872 62.2119 29.5938 62.2119C28.9648 62.2119 28.443 62.1185 28.0283 61.9316C27.6136 61.7448 27.2832 61.4873 27.0371 61.1592C26.791 60.8265 26.668 60.4437 26.668 60.0107V59.9834ZM35.5479 62H34.2764V50.9668H35.5479V55.6836C35.8167 55.2689 36.0765 54.9613 36.3271 54.7607C36.5824 54.5602 36.8467 54.4098 37.1201 54.3096C37.3981 54.2048 37.7057 54.1523 38.043 54.1523C38.5215 54.1523 38.9499 54.2503 39.3281 54.4463C39.7109 54.6423 40.0072 54.9316 40.2168 55.3145C40.4264 55.6927 40.5312 56.3011 40.5312 57.1396V62H39.2598V57.6865C39.2598 57.0029 39.2142 56.5199 39.123 56.2373C39.0319 55.9502 38.8587 55.7269 38.6035 55.5674C38.3483 55.4033 38.0566 55.3213 37.7285 55.3213C37.3548 55.3213 36.9993 55.4307 36.6621 55.6494C36.3249 55.8682 36.0537 56.1735 35.8486 56.5654C35.6481 56.9574 35.5479 57.5179 35.5479 58.2471V62Z" fill="black"/>
</svg>
